<?xml version="1.0" standalone="no"?>
<!DOCTYPE svg PUBLIC "-//W3C//DTD SVG 1.1//EN" "http://www.w3.org/Graphics/SVG/1.1/DTD/svg11.dtd" >
<svg xmlns="http://www.w3.org/2000/svg" xmlns:xlink="http://www.w3.org/1999/xlink" version="1.1">
<metadata>
Created by FontForge 20170731 at Tue Mar  5 20:47:55 1996
 By Aleksey,,,
Copyright (c) 1993 , Monotype Typography ltd.
</metadata>
<defs>
<font id="ArialRoundedMTBold" horiz-adv-x="1217" >
  <font-face 
    font-family="Arial Rounded MT Bold"
    font-weight="700"
    font-stretch="normal"
    units-per-em="2048"
    panose-1="2 15 7 4 3 5 4 3 2 4"
    ascent="1638"
    descent="-410"
    x-height="1061"
    cap-height="1491"
    bbox="-356 -432 2427 1938"
    underline-thickness="102"
    underline-position="-358"
    unicode-range="U+0020-F002"
  />
<missing-glyph horiz-adv-x="1024" 
d="M82 1365h860v-1365h-860v1365zM123 1324v-1283h778v1283h-778z" />
    <glyph glyph-name=".notdef" horiz-adv-x="1024" 
d="M82 1365h860v-1365h-860v1365zM123 1324v-1283h778v1283h-778z" />
    <glyph glyph-name="glyph1" horiz-adv-x="0" 
 />
    <glyph glyph-name="glyph2" horiz-adv-x="512" 
 />
    <glyph glyph-name="space" unicode=" " horiz-adv-x="512" 
 />
    <glyph glyph-name="exclam" unicode="!" horiz-adv-x="682" 
d="M231 635l-32 479q-9 140 -9 201q0 83 43.5 129.5t114.5 46.5q86 0 115 -59.5t29 -171.5q0 -66 -7 -134l-43 -493q-7 -88 -30 -135t-76 -47q-54 0 -75 45.5t-30 138.5zM342 -23q-61 0 -106.5 39.5t-45.5 110.5q0 62 43.5 105.5t106.5 43.5t107.5 -43.5t44.5 -105.5
q0 -70 -45 -110t-105 -40z" />
    <glyph glyph-name="quotedbl" unicode="&#x22;" horiz-adv-x="981" 
d="M373 944h-207l-53 275v247h307v-247zM823 944h-207l-53 275v247h307v-247z" />
    <glyph glyph-name="numbersign" unicode="#" horiz-adv-x="1130" 
d="M117 178l37 187q-138 3 -138 110q0 50 34.5 81.5t101.5 31.5h47l57 291h-104q-65 0 -100.5 32.5t-35.5 79.5q0 50 34.5 80.5t101.5 30.5h149l47 229q11 58 24.5 91t37 50t61.5 17q53 0 81 -28t28 -72q0 -10 -17 -101l-37 -186h219l48 229q10 52 19 84t32.5 54t68.5 22
q52 0 80.5 -27t28.5 -73q0 -21 -2.5 -41t-6.5 -38.5t-5 -23.5l-37 -188q143 -3 143 -111q0 -50 -34 -80t-101 -30h-51l-60 -291h111q67 0 101 -32t34 -81t-33.5 -79.5t-101.5 -30.5h-154l-47 -230q-11 -55 -19.5 -85t-32.5 -52.5t-69 -22.5q-50 0 -79 28t-29 73q0 41 14 102
l37 187h-221l-47 -230q-18 -85 -37.5 -122.5t-83.5 -37.5q-51 0 -80 28t-29 73q0 23 5.5 51.5t9.5 50.5zM702 879h-221l-59 -291h223z" />
    <glyph glyph-name="dollar" unicode="$" 
d="M670 1593v-108q107 -11 183.5 -44t133.5 -100q45 -51 69.5 -105t24.5 -99q0 -50 -36.5 -86.5t-88.5 -36.5q-98 0 -127 106q-33 125 -159 166v-416q124 -34 197.5 -62t131.5 -81q62 -55 95.5 -131.5t33.5 -167.5q0 -114 -53.5 -213.5t-157.5 -162.5t-247 -75v-249
q0 -59 -11.5 -86t-50.5 -27q-36 0 -50.5 22t-14.5 68v270q-117 13 -204.5 55t-146 104.5t-86.5 130t-28 132.5q0 48 37.5 86.5t93.5 38.5q45 0 76 -21t43 -59q27 -82 47 -125.5t60.5 -79.5t107.5 -55v465q-134 37 -224 82.5t-146 129.5t-56 216q0 172 109.5 282t316.5 128
v106q0 84 63 84q64 0 64 -82zM543 907v383q-84 -25 -131 -66t-47 -124q0 -79 44 -119.5t134 -73.5zM670 610v-438q101 20 156 81t55 142q0 87 -53.5 134.5t-157.5 80.5z" />
    <glyph glyph-name="percent" unicode="%" horiz-adv-x="1749" 
d="M676 1090q0 -191 -84 -284t-230 -93q-90 0 -161.5 39.5t-111.5 123.5t-40 205q0 130 31 217t100.5 132t177.5 45q78 0 137 -24t100 -73.5t61 -120.5t20 -167zM489 1100q0 131 -28 190.5t-99 59.5q-48 0 -76.5 -28.5t-39 -84t-10.5 -141.5q0 -89 10.5 -145t38.5 -84.5
t77 -28.5q74 0 100.5 63t26.5 199zM1700 367q0 -191 -84 -284t-230 -93q-91 0 -162.5 40t-112 123t-40.5 205q0 195 74.5 293.5t236.5 98.5q78 0 136.5 -24t100 -72t61.5 -119.5t20 -167.5zM1513 377q0 129 -28 188.5t-99 59.5q-50 0 -78 -28t-39.5 -82.5t-11.5 -141.5
q0 -134 28.5 -196t100.5 -62q73 0 100 63.5t27 198.5zM1343 1343l-833 -1343q-32 -55 -72 -55q-23 0 -46 17.5t-23 45.5q0 21 20 51l838 1354q22 37 38.5 55.5t47.5 18.5q30 0 48.5 -17.5t18.5 -46.5q0 -21 -37 -80z" />
    <glyph glyph-name="ampersand" unicode="&#x26;" horiz-adv-x="1556" 
d="M317 1155q0 93 48.5 169.5t142.5 121.5t221 45q126 0 218 -47t137.5 -123t45.5 -158q0 -112 -74 -195t-218 -169q50 -59 93 -111t83 -97t73 -77q15 28 46.5 105t59 111t77.5 34q47 0 83 -33.5t36 -81.5q0 -44 -31 -124.5t-90 -178.5q37 -32 117.5 -97t99 -88.5
t18.5 -62.5q0 -52 -37.5 -87.5t-83.5 -35.5q-47 0 -91 30t-187 147q-65 -61 -134.5 -100t-149 -58t-177.5 -19q-125 0 -224.5 36.5t-165.5 98.5t-98 137.5t-32 153.5q0 75 24 137.5t67.5 113t107 96t147.5 88.5q-75 94 -113.5 167.5t-38.5 151.5zM600 676
q-102 -59 -152.5 -118t-50.5 -140q0 -46 18.5 -88t54 -78t82.5 -55t99 -19q51 0 99 16t91 45.5t89 73.5q-89 82 -160 162.5t-170 200.5zM702 950q102 65 147.5 109.5t45.5 107.5q0 62 -45.5 104t-114.5 42t-115.5 -43t-46.5 -101q0 -30 17.5 -64.5t43.5 -68.5t68 -86z" />
    <glyph glyph-name="quotesingle" unicode="'" horiz-adv-x="492" 
d="M352 944h-207l-53 275v247h307v-247z" />
    <glyph glyph-name="parenleft" unicode="(" horiz-adv-x="725" 
d="M129 530q0 151 26 282.5t79 259t131 255.5q47 78 79 112.5t60.5 43t73.5 8.5q49 0 49 -27q0 -9 -46 -108.5t-86.5 -208.5t-75 -272t-34.5 -345q0 -180 34 -341t77.5 -279t87 -211.5t43.5 -101.5q0 -27 -49 -27q-46 0 -74.5 9.5t-59.5 44.5t-79 112q-79 132 -130.5 254.5
t-78.5 254.5t-27 285z" />
    <glyph glyph-name="parenright" unicode=")" horiz-adv-x="725" 
d="M598 530q0 -220 -58.5 -409t-177.5 -385q-67 -110 -106 -138t-106 -28q-50 0 -50 27q0 9 42 96.5t87.5 208.5t79 284.5t33.5 343.5q0 181 -34 345t-79 284t-87 208.5t-42 96.5q0 27 50 27q70 0 108 -26.5t104 -137.5q59 -98 103 -193t73.5 -190t44.5 -198t15 -216z" />
    <glyph glyph-name="asterisk" unicode="*" horiz-adv-x="897" 
d="M504 1221q65 30 124 60t94 44t56 14q35 0 60.5 -23.5t25.5 -58.5q0 -20 -12.5 -41.5t-26.5 -27.5q-129 -51 -284 -74q28 -26 69 -69t43 -46q15 -21 42 -52t37.5 -48.5t10.5 -42.5q0 -32 -24 -56t-62 -24t-85.5 59t-122.5 212q-76 -138 -102 -182t-50 -66.5t-55 -22.5
q-37 0 -61.5 25.5t-24.5 54.5q0 27 10 41q92 125 192 217q-84 13 -150 29t-140 47q-12 6 -23.5 27.5t-11.5 39.5q0 35 25.5 58.5t58.5 23.5q24 0 60 -14.5t91.5 -42t126.5 -61.5q-13 63 -21.5 144.5t-8.5 111.5q0 37 23.5 63.5t60.5 26.5q36 0 59.5 -26.5t23.5 -70.5
q0 -12 -3.5 -47.5t-10 -86t-14.5 -115.5z" />
    <glyph glyph-name="plus" unicode="+" horiz-adv-x="1194" 
d="M725 211h-258v381h-383v262h383v383h258v-383h385v-262h-385v-381z" />
    <glyph glyph-name="comma" unicode="," horiz-adv-x="641" 
d="M326 -27q-66 0 -114 40.5t-48 113.5q0 63 47 106t111 43q48 0 87 -26t61 -76.5t22 -124.5q0 -99 -42 -185.5t-102.5 -137t-109.5 -50.5q-31 0 -50.5 20.5t-19.5 47.5q0 41 41 66q117 65 117 163z" />
    <glyph glyph-name="hyphen" unicode="-" horiz-adv-x="682" 
d="M500 412h-316q-72 0 -109.5 33.5t-37.5 86.5q0 54 36.5 87.5t110.5 33.5h316q74 0 110.5 -33.5t36.5 -87.5q0 -53 -36 -86.5t-111 -33.5z" />
    <glyph glyph-name="hyphen" unicode="&#xad;" horiz-adv-x="682" 
d="M500 412h-316q-72 0 -109.5 33.5t-37.5 86.5q0 54 36.5 87.5t110.5 33.5h316q74 0 110.5 -33.5t36.5 -87.5q0 -53 -36 -86.5t-111 -33.5z" />
    <glyph glyph-name="period" unicode="." horiz-adv-x="641" 
d="M322 -25q-62 0 -107 40t-45 112q0 61 43 105t106 44t107.5 -43.5t44.5 -105.5q0 -71 -44.5 -111.5t-104.5 -40.5z" />
    <glyph glyph-name="slash" unicode="/" horiz-adv-x="575" 
d="M528 1288l-280 -1153q-14 -57 -24.5 -90t-32 -51.5t-62.5 -18.5q-102 0 -102 88q0 23 20 115l279 1153q22 92 42 126t78 34q50 0 76.5 -24t26.5 -66q0 -31 -21 -113z" />
    <glyph glyph-name="zero" unicode="0" 
d="M1120 719q0 -164 -20 -282t-74 -214q-68 -118 -176 -182t-240 -64q-152 0 -272.5 86t-181.5 238q-31 83 -45.5 183.5t-14.5 217.5q0 151 16 272t50 208q59 144 171.5 219.5t268.5 75.5q103 0 187 -33.5t147.5 -98t107.5 -159.5q76 -165 76 -467zM846 739q0 183 -22 299.5
t-74 176t-144 59.5q-132 0 -183.5 -133t-51.5 -410q0 -188 22 -308t74 -181.5t141 -61.5q92 0 144 64t73 183t21 312z" />
    <glyph glyph-name="one" unicode="1" 
d="M578 137v910q-254 -195 -342 -195q-42 0 -74.5 33.5t-32.5 77.5q0 51 32 75t113 62q121 57 193.5 120t128.5 141t73 96t64 18q53 0 85 -41t32 -113v-1145q0 -201 -137 -201q-61 0 -98 41t-37 121z" />
    <glyph glyph-name="two" unicode="2" 
d="M457 236h522q78 0 119 -32t41 -87q0 -49 -32.5 -83t-98.5 -34h-736q-75 0 -117 41.5t-42 97.5q0 36 27 95.5t59 93.5q133 138 240 236.5t153 129.5q82 58 136.5 116.5t83 120t28.5 120.5q0 64 -30.5 114.5t-83 78.5t-114.5 28q-131 0 -206 -115q-10 -15 -33.5 -82
t-53 -103t-86.5 -36q-50 0 -83 33t-33 90q0 69 31 144t92.5 136t156 98.5t221.5 37.5q153 0 261 -48q70 -32 123 -88t82.5 -129.5t29.5 -152.5q0 -124 -61.5 -225.5t-125.5 -159t-214.5 -180.5t-206.5 -191q-24 -27 -49 -65z" />
    <glyph glyph-name="three" unicode="3" 
d="M561 885q92 0 158.5 54t66.5 155q0 77 -53 132.5t-143 55.5q-61 0 -100.5 -17t-62.5 -45t-43.5 -72t-37.5 -83q-10 -21 -36 -33t-60 -12q-40 0 -73.5 32.5t-33.5 86.5q0 52 31.5 109.5t92 109.5t150.5 83.5t201 31.5q97 0 177 -26.5t139 -76.5t89 -116t30 -142
q0 -100 -43.5 -171.5t-124.5 -139.5q78 -42 131.5 -96t80.5 -119.5t27 -141.5q0 -91 -36.5 -176t-107.5 -151.5t-168.5 -104t-215.5 -37.5q-120 0 -215 43t-156.5 107.5t-93 133.5t-31.5 114q0 58 37.5 93.5t93.5 35.5q28 0 54 -16.5t34 -39.5q52 -139 111.5 -206.5
t167.5 -67.5q62 0 119.5 30.5t95 90.5t37.5 139q0 117 -64 183.5t-178 66.5q-20 0 -62 -4t-54 -4q-55 0 -85 27.5t-30 76.5q0 48 36 77.5t107 29.5h41z" />
    <glyph glyph-name="four" unicode="4" 
d="M717 127v186h-502q-95 0 -142.5 43t-47.5 117q0 19 7 38.5t21 41t29 41.5t37 49l530 709q52 70 85.5 101.5t80.5 31.5q152 0 152 -174v-774h43q77 0 123.5 -21t46.5 -92q0 -58 -38 -84.5t-114 -26.5h-61v-186q0 -77 -34 -114.5t-91 -37.5q-56 0 -90.5 38.5t-34.5 113.5z
M287 537h430v581z" />
    <glyph glyph-name="five" unicode="5" 
d="M948 1219h-475l-57 -324q142 76 262 76q96 0 179.5 -36t146.5 -99.5t99 -150.5t36 -187q0 -145 -65 -264t-187.5 -189t-282.5 -70q-179 0 -290.5 66t-158 151.5t-46.5 149.5q0 39 32.5 74t81.5 35q84 0 125 -97q40 -89 108 -138.5t152 -49.5q77 0 135 40t89.5 110
t31.5 159q0 96 -34 164t-91 101.5t-127 33.5q-86 0 -123 -21t-106.5 -73.5t-114.5 -52.5q-49 0 -87 35.5t-38 80.5q0 5 11 68l84 479q14 86 52 125t124 39h528q156 0 156 -119q0 -52 -38 -84t-112 -32z" />
    <glyph glyph-name="six" unicode="6" 
d="M371 793q68 81 148 120t179 39q95 0 175.5 -35.5t141 -101t93.5 -154.5t33 -186q0 -141 -64.5 -256t-180 -179.5t-261.5 -64.5q-168 0 -290 82t-186.5 242.5t-64.5 392.5q0 189 39 338t112 247t177 148t237 50q128 0 225.5 -50t147 -124t49.5 -142q0 -41 -31 -74.5
t-79 -33.5q-42 0 -78 26.5t-53 73.5q-23 60 -73 96.5t-116 36.5q-53 0 -105.5 -30.5t-88.5 -82.5q-73 -106 -86 -378zM641 172q101 0 167 82.5t66 216.5q0 91 -31 156.5t-85 100t-119 34.5q-62 0 -118.5 -33t-91 -95.5t-34.5 -146.5q0 -135 70 -225t176 -90z" />
    <glyph glyph-name="seven" unicode="7" 
d="M319 1452h666q96 0 139 -30t43 -99q0 -42 -50.5 -111t-115 -152.5t-133 -207.5t-125.5 -303q-24 -79 -34 -131t-22 -135t-21 -127q-21 -102 -59.5 -141.5t-102.5 -39.5q-61 0 -98 42.5t-37 125.5q0 64 27 174t88 263.5t152.5 315t217.5 321.5h-535q-84 0 -125.5 30.5
t-41.5 95.5q0 69 44 89t123 20z" />
    <glyph glyph-name="eight" unicode="8" 
d="M137 1094q0 100 54.5 188.5t160 141.5t246.5 53q119 0 209 -31t150 -85.5t89 -123t29 -145.5q0 -98 -50.5 -175t-150.5 -126q85 -33 141 -86.5t84.5 -124t28.5 -156.5q0 -126 -61 -228.5t-179 -160.5t-278 -58q-166 0 -284 58t-178 159.5t-60 227.5q0 269 254 369
q-205 96 -205 303zM854 432q0 78 -32 136t-90 89t-130 31q-102 0 -171 -68t-69 -190q0 -78 32.5 -137.5t88.5 -92t125 -32.5q70 0 126 33t88 93t32 138zM604 1286q-94 0 -151.5 -58.5t-57.5 -150.5q0 -85 59 -141.5t152 -56.5q47 0 85.5 15t66 41.5t42.5 63t15 80.5
q0 59 -26.5 106t-74.5 74t-110 27z" />
    <glyph glyph-name="nine" unicode="9" 
d="M834 657q-66 -78 -147.5 -117.5t-180.5 -39.5q-94 0 -175.5 36.5t-141 102t-91.5 153t-32 183.5q0 103 36 195.5t103 160.5t159.5 106t204.5 38q129 0 230 -47t170 -136.5t106 -225.5t37 -308q0 -192 -39 -338.5t-113.5 -246t-178.5 -148t-236 -48.5q-130 0 -226 49.5
t-146 123t-50 141.5q0 42 31 75t79 33q44 0 79 -24.5t53 -73.5q22 -60 73 -96.5t115 -36.5q57 0 108 29t87 82q72 107 86 378zM811 963q0 68 -18.5 125.5t-52 99.5t-80 66t-101.5 24q-95 0 -161 -81.5t-66 -215.5q0 -133 66 -212t167 -79q62 0 118.5 32.5t92 94.5t35.5 146z
" />
    <glyph glyph-name="colon" unicode=":" horiz-adv-x="641" 
d="M322 -25q-62 0 -107 40t-45 112q0 61 43 105t106 44t107.5 -43.5t44.5 -105.5q0 -71 -44.5 -111.5t-104.5 -40.5zM170 936q0 71 44.5 110t107.5 39q61 0 105 -39.5t44 -109.5q0 -56 -48 -103t-104 -47q-61 0 -105 45t-44 105z" />
    <glyph glyph-name="semicolon" unicode=";" horiz-adv-x="641" 
d="M307 -27q-66 0 -114 40.5t-48 113.5q0 63 47 106t111 43q48 0 87 -26t61 -76.5t22 -124.5q0 -99 -42 -185.5t-102.5 -137t-109.5 -50.5q-31 0 -50 20.5t-19 47.5q0 41 40 66q117 64 117 163zM170 936q0 71 44.5 110t107.5 39q61 0 105 -39.5t44 -109.5
q0 -57 -46.5 -103.5t-102.5 -46.5q-42 0 -76.5 20t-55 53.5t-20.5 76.5z" />
    <glyph glyph-name="less" unicode="&#x3c;" horiz-adv-x="1194" 
d="M1100 451v-283l-1006 436v242l1006 436v-285l-701 -270z" />
    <glyph glyph-name="equal" unicode="=" horiz-adv-x="1194" 
d="M1110 371h-1026v262h1026v-262zM1110 815h-1026v262h1026v-262z" />
    <glyph glyph-name="greater" unicode="&#x3e;" horiz-adv-x="1194" 
d="M1100 604l-1006 -438v283l703 276l-703 272v281l1006 -434v-240z" />
    <glyph glyph-name="question" unicode="?" horiz-adv-x="1174" 
d="M90 1073q0 95 61 192.5t178 161.5t273 64q145 0 256 -53.5t171.5 -145.5t60.5 -200q0 -85 -34.5 -149t-82 -110.5t-170.5 -156.5q-34 -31 -54.5 -54.5t-30.5 -43t-15.5 -39t-16.5 -68.5q-19 -104 -119 -104q-52 0 -87.5 34t-35.5 101q0 84 26 145.5t69 108t116 110.5
q64 56 92.5 84.5t48 63.5t19.5 76q0 80 -59.5 135t-153.5 55q-110 0 -162 -55.5t-88 -163.5q-34 -113 -129 -113q-56 0 -94.5 39.5t-38.5 85.5zM578 -23q-61 0 -106.5 39.5t-45.5 110.5q0 63 44 106t108 43q63 0 106 -43t43 -106q0 -70 -45 -110t-104 -40z" />
    <glyph glyph-name="at" unicode="@" horiz-adv-x="2005" 
d="M1243 948l25 111h264l-152 -717q-14 -68 -14 -90q0 -23 11.5 -36t27.5 -13q54 0 139.5 70.5t149 192t63.5 265.5q0 120 -45.5 226t-131.5 184t-212.5 122t-286.5 44q-163 0 -299 -42.5t-239 -122t-172 -196.5q-61 -102 -93 -226t-32 -253q0 -172 68.5 -314.5t199 -239
t315.5 -137t418 -16.5q185 22 313.5 84t217.5 174h213q-52 -107 -135.5 -191t-195.5 -141.5t-251 -87.5t-303 -30q-246 0 -443 64.5t-331.5 186t-203.5 290t-69 372.5q0 213 71 398t204.5 321.5t326 213.5t424.5 77q190 0 348.5 -55.5t271.5 -159.5t172.5 -246.5
t59.5 -314.5q0 -134 -48 -262.5t-137.5 -231t-210.5 -162t-261 -59.5q-81 0 -126 27.5t-60 87.5q-87 -86 -200 -108.5t-219 21t-171.5 146.5t-65.5 254q0 157 67.5 309t192 249t281.5 97q180 0 264 -135zM696 430q0 -120 50 -184t131 -64q94 0 165.5 75t108.5 189.5
t37 221.5q0 53 -12.5 95.5t-37 74.5t-59 48.5t-78.5 16.5q-88 0 -158.5 -68.5t-108.5 -178t-38 -226.5z" />
    <glyph glyph-name="A" unicode="A" horiz-adv-x="1473" 
d="M1098 166l-70 184h-596l-70 -188q-41 -110 -70 -148.5t-95 -38.5q-56 0 -99 41t-43 93q0 30 10 62t33 89l375 952q16 41 38.5 98.5t48 95.5t67 61.5t102.5 23.5q62 0 103.5 -23.5t67 -60.5t43 -79.5t44.5 -113.5l383 -946q45 -108 45 -157q0 -51 -42.5 -93.5
t-102.5 -42.5q-35 0 -60 12.5t-42 34t-36.5 66t-33.5 78.5zM510 573h438l-221 605z" />
    <glyph glyph-name="B" unicode="B" horiz-adv-x="1473" 
d="M786 0h-448q-97 0 -138.5 43.5t-41.5 138.5v1102q0 97 42.5 139.5t137.5 42.5h475q105 0 182 -13t138 -50q52 -31 92 -78.5t61 -105t21 -121.5q0 -220 -220 -322q289 -92 289 -358q0 -123 -63 -221.5t-170 -145.5q-67 -28 -154 -39.5t-203 -11.5zM764 651h-309v-428h319
q301 0 301 217q0 111 -78 161t-233 50zM455 1243v-379h272q111 0 171.5 21t92.5 80q25 42 25 94q0 111 -79 147.5t-241 36.5h-241z" />
    <glyph glyph-name="C" unicode="C" horiz-adv-x="1516" 
d="M1409 463q0 -70 -34.5 -151.5t-108.5 -160t-189 -127.5t-268 -49q-116 0 -211 22t-172.5 68.5t-142.5 122.5q-58 69 -99 154.5t-61.5 182.5t-20.5 206q0 177 51.5 317t147.5 239.5t225 151.5t275 52q178 0 317 -71t213 -175.5t74 -197.5q0 -51 -36 -90t-87 -39
q-57 0 -85.5 27t-63.5 93q-58 109 -136.5 163t-193.5 54q-183 0 -291.5 -139t-108.5 -395q0 -171 48 -284.5t136 -169.5t206 -56q128 0 216.5 63.5t133.5 186.5q19 58 47 94.5t90 36.5q53 0 91 -37t38 -92z" />
    <glyph glyph-name="D" unicode="D" horiz-adv-x="1516" 
d="M344 1466h387q151 0 259 -28t196 -105q229 -196 229 -596q0 -132 -23 -241t-71 -196.5t-123 -156.5q-59 -53 -129 -85t-150.5 -45t-181.5 -13h-387q-81 0 -122 24.5t-53.5 69t-12.5 115.5v1075q0 96 43 139t139 43zM459 1231v-995h225q74 0 116 4t87 20t78 45
q149 126 149 434q0 217 -65.5 325t-161.5 137.5t-232 29.5h-196z" />
    <glyph glyph-name="E" unicode="E" horiz-adv-x="1366" 
d="M1126 1237h-669v-360h616q68 0 101.5 -30.5t33.5 -80.5t-33 -81.5t-102 -31.5h-616v-417h692q70 0 105.5 -32.5t35.5 -86.5q0 -52 -35.5 -84.5t-105.5 -32.5h-807q-97 0 -139.5 43t-42.5 139v1102q0 64 19 104.5t59.5 59t103.5 18.5h784q71 0 105.5 -31.5t34.5 -82.5
q0 -52 -34.5 -83.5t-105.5 -31.5z" />
    <glyph glyph-name="F" unicode="F" horiz-adv-x="1237" 
d="M1036 1237h-585v-375h489q68 0 101.5 -30.5t33.5 -81.5t-34 -81t-101 -30h-489v-483q0 -92 -41.5 -136.5t-106.5 -44.5q-66 0 -107.5 45t-41.5 136v1128q0 64 19 104.5t59.5 59t103.5 18.5h700q71 0 105.5 -31.5t34.5 -82.5q0 -52 -34.5 -83.5t-105.5 -31.5z" />
    <glyph glyph-name="G" unicode="G" horiz-adv-x="1622" 
d="M1499 596v-281q0 -56 -11 -89.5t-40.5 -60.5t-75.5 -52q-133 -72 -256 -105t-268 -33q-169 0 -308 52t-237 151t-150.5 240t-52.5 315q0 171 51 313t150 241t241 151.5t322 52.5q148 0 262 -39.5t185 -99.5t107 -127t36 -119q0 -56 -41.5 -95.5t-99.5 -39.5
q-32 0 -61.5 15t-49.5 42q-55 86 -93 130t-102.5 74t-164.5 30q-103 0 -184 -35.5t-138.5 -103t-88 -165.5t-30.5 -217q0 -258 118.5 -397t330.5 -139q103 0 193.5 27t183.5 77v238h-230q-83 0 -125.5 25t-42.5 85q0 49 35.5 81t96.5 32h337q62 0 105 -11t69.5 -49
t26.5 -114z" />
    <glyph glyph-name="H" unicode="H" horiz-adv-x="1556" 
d="M459 1311v-420h641v420q0 90 40.5 135t106.5 45q67 0 108.5 -44.5t41.5 -135.5v-1155q0 -91 -42 -136t-108 -45q-67 0 -107 45.5t-40 135.5v493h-641v-493q0 -91 -42 -136t-108 -45q-67 0 -107 45.5t-40 135.5v1155q0 90 39.5 135t107.5 45q67 0 108.5 -44.5t41.5 -135.5
z" />
    <glyph glyph-name="I" unicode="I" horiz-adv-x="641" 
d="M172 156v1155q0 90 41 135t106 45q67 0 108.5 -44.5t41.5 -135.5v-1155q0 -91 -41.5 -136t-108.5 -45q-64 0 -105.5 45.5t-41.5 135.5z" />
    <glyph glyph-name="J" unicode="J" horiz-adv-x="1174" 
d="M1012 1311v-768q0 -100 -8.5 -170t-38.5 -142q-50 -121 -165 -188.5t-280 -67.5q-149 0 -248.5 47t-160.5 152q-32 56 -52 129t-20 139q0 70 39 107t100 37q59 0 89 -34t46 -106q17 -77 34 -123t57 -79t114 -33q197 0 197 289v811q0 90 39.5 135t107.5 45q69 0 109.5 -45
t40.5 -135z" />
    <glyph glyph-name="K" unicode="K" horiz-adv-x="1516" 
d="M459 1311v-514l583 608q42 44 71.5 65t78.5 21q64 0 103.5 -37.5t39.5 -91.5q0 -65 -67 -129l-361 -342l416 -596q44 -62 66 -108.5t22 -90.5q0 -49 -38.5 -85t-104.5 -36q-62 0 -101 26.5t-66 70.5t-48 80l-351 540l-243 -233v-303q0 -92 -42 -136.5t-108 -44.5
q-38 0 -73 20t-54 54q-14 28 -17 65t-3 107v1090q0 90 39.5 135t107.5 45q67 0 108.5 -44.5t41.5 -135.5z" />
    <glyph glyph-name="L" unicode="L" horiz-adv-x="1237" 
d="M451 1311v-1067h602q72 0 110.5 -35t38.5 -88q0 -54 -38 -87.5t-111 -33.5h-717q-97 0 -139.5 43t-42.5 139v1129q0 90 40.5 135t106.5 45q67 0 108.5 -44.5t41.5 -135.5z" />
    <glyph glyph-name="M" unicode="M" horiz-adv-x="1706" 
d="M655 221l-235 934v-1012q0 -84 -37.5 -126t-99.5 -42q-60 0 -98 41.5t-38 126.5v1160q0 96 50 129.5t135 33.5h92q83 0 120.5 -15t55.5 -54t41 -127l213 -803l213 803q23 88 41 127t55.5 54t120.5 15h92q85 0 135 -33.5t50 -129.5v-1160q0 -84 -37.5 -126t-100.5 -42
q-59 0 -97 42t-38 126v1012l-235 -934q-23 -91 -37.5 -133.5t-53.5 -77.5t-108 -35q-52 0 -88 22.5t-56 57.5t-31.5 77.5t-23.5 88.5z" />
    <glyph glyph-name="N" unicode="N" horiz-adv-x="1556" 
d="M547 1313l571 -864v872q0 85 36.5 127.5t98.5 42.5q64 0 101 -42.5t37 -127.5v-1153q0 -193 -160 -193q-40 0 -72 11.5t-60 36.5t-52 58.5t-48 68.5l-557 854v-859q0 -84 -39 -127t-100 -43q-63 0 -101 43.5t-38 126.5v1131q0 72 16 113q19 45 63 73.5t95 28.5
q40 0 68.5 -13t50 -35t44 -57t46.5 -73z" />
    <glyph glyph-name="O" unicode="O" horiz-adv-x="1622" 
d="M805 1491q228 0 391.5 -92.5t247.5 -263t84 -400.5q0 -170 -46 -309t-138 -241t-226 -156t-307 -54q-172 0 -308 55.5t-227 156.5t-137.5 243t-46.5 307q0 169 48.5 310t140.5 240t224 151.5t300 52.5zM1227 737q0 161 -52 279t-148.5 178.5t-221.5 60.5
q-89 0 -164.5 -33.5t-130 -97.5t-86 -163.5t-31.5 -223.5q0 -125 31.5 -226t89 -167.5t132 -99.5t163.5 -33q114 0 209.5 57t152 176t56.5 293z" />
    <glyph glyph-name="P" unicode="P" horiz-adv-x="1366" 
d="M729 571h-272v-415q0 -89 -42 -135t-106 -46q-67 0 -108 45.5t-41 133.5v1130q0 98 45 140t143 42h381q169 0 260 -26q90 -25 155.5 -83t99.5 -142t34 -189q0 -224 -138 -339.5t-411 -115.5zM657 1243h-200v-448h200q105 0 175.5 22t107.5 72t37 131q0 97 -57 158
q-64 65 -263 65z" />
    <glyph glyph-name="Q" unicode="Q" horiz-adv-x="1622" 
d="M1339 182q65 -44 142 -85.5t102 -66t25 -69.5q0 -32 -29.5 -64t-71.5 -32q-34 0 -82.5 22t-114 64t-143.5 98q-145 -74 -356 -74q-171 0 -306.5 54.5t-227.5 157t-138.5 243.5t-46.5 307q0 169 48.5 310t140.5 240t224 151.5t300 52.5q228 0 391.5 -92.5t247.5 -263
t84 -400.5q0 -349 -189 -553zM1106 344q62 71 91.5 168t29.5 225q0 161 -52 279t-148.5 178.5t-221.5 60.5q-89 0 -164.5 -33.5t-130 -97.5t-86 -163.5t-31.5 -223.5q0 -253 118 -389.5t298 -136.5q74 0 152 31q-47 35 -117.5 70t-96.5 54t-26 54q0 30 25 53t55 23
q91 0 305 -152z" />
    <glyph glyph-name="R" unicode="R" horiz-adv-x="1473" 
d="M559 627h-104v-471q0 -93 -41 -137t-107 -44q-71 0 -110 46t-39 135v1128q0 96 43 139t139 43h483q100 0 171 -8.5t128 -34.5q69 -29 122 -83t80.5 -125.5t27.5 -151.5q0 -164 -92.5 -262t-280.5 -139q79 -42 151 -124t128.5 -174.5t88 -167t31.5 -102.5
q0 -29 -18.5 -57.5t-50.5 -45t-74 -16.5q-50 0 -84 23.5t-58.5 59.5t-66.5 106l-119 198q-64 109 -114.5 166t-102.5 78t-131 21zM729 1243h-274v-403h266q107 0 180 18.5t111.5 63t38.5 122.5q0 61 -31 107.5t-86 69.5q-52 22 -205 22z" />
    <glyph glyph-name="S" unicode="S" horiz-adv-x="1366" 
d="M1274 440q0 -133 -68.5 -239t-200.5 -166t-313 -60q-217 0 -358 82q-100 59 -162.5 157.5t-62.5 191.5q0 54 37.5 92.5t95.5 38.5q47 0 79.5 -30t55.5 -89q28 -70 60.5 -117t91.5 -77.5t155 -30.5q132 0 214.5 61.5t82.5 153.5q0 73 -44.5 118.5t-115 69.5t-188.5 51
q-158 37 -264.5 86.5t-169 135t-62.5 212.5q0 121 66 215t191 144.5t294 50.5q135 0 233.5 -33.5t163.5 -89t95 -116.5t30 -119q0 -53 -37.5 -95.5t-93.5 -42.5q-51 0 -77.5 25.5t-57.5 83.5q-40 83 -96 129.5t-180 46.5q-115 0 -185.5 -50.5t-70.5 -121.5q0 -44 24 -76
t66 -55t85 -36t142 -38q124 -29 224.5 -64t171 -85t110 -126.5t39.5 -187.5z" />
    <glyph glyph-name="T" unicode="T" horiz-adv-x="1280" 
d="M1112 1221h-324v-1065q0 -92 -41 -136.5t-106 -44.5q-66 0 -107.5 45t-41.5 136v1065h-324q-76 0 -113 33.5t-37 88.5q0 57 38.5 90t111.5 33h944q77 0 114.5 -34t37.5 -89t-38 -88.5t-114 -33.5z" />
    <glyph glyph-name="U" unicode="U" horiz-adv-x="1556" 
d="M162 606v705q0 90 40.5 135t106.5 45q69 0 109.5 -45t40.5 -135v-721q0 -123 27.5 -205.5t97.5 -128t196 -45.5q174 0 246 92.5t72 280.5v727q0 91 40 135.5t107 44.5t108.5 -44.5t41.5 -135.5v-705q0 -172 -33.5 -287t-126.5 -202q-80 -74 -186 -108t-248 -34
q-169 0 -291 36.5t-199 113t-113 196t-36 285.5z" />
    <glyph glyph-name="V" unicode="V" horiz-adv-x="1409" 
d="M377 1296l332 -983l333 990q26 78 39 108.5t43 55t82 24.5q38 0 70.5 -19t51 -50.5t18.5 -63.5q0 -22 -6 -47.5t-15 -50t-18 -50.5l-355 -958q-19 -55 -38 -104.5t-44 -87t-66.5 -61.5t-101.5 -24t-101.5 23.5t-67 62t-44.5 87.5t-38 104l-349 950q-9 26 -18.5 51t-16 54
t-6.5 49q0 51 41 93t103 42q76 0 107.5 -46.5t64.5 -148.5z" />
    <glyph glyph-name="W" unicode="W" horiz-adv-x="1921" 
d="M1198 231l-237 879l-240 -879q-28 -100 -44.5 -143.5t-57.5 -78t-109 -34.5q-55 0 -90.5 20.5t-57.5 58t-36 89t-25 95.5l-244 987q-22 86 -22 131q0 57 40 96t99 39q81 0 109 -52t49 -151l192 -856l215 801q24 92 43 140t62 83t117 35q75 0 116.5 -36.5t57.5 -79.5
t43 -142l217 -801l192 856q14 67 26.5 105t43 68t88.5 30t98.5 -38.5t40.5 -96.5q0 -41 -22 -131l-244 -987q-25 -100 -41.5 -146.5t-56 -81.5t-111.5 -35q-68 0 -109 34t-57 76.5t-45 145.5z" />
    <glyph glyph-name="X" unicode="X" horiz-adv-x="1237" 
d="M106 285l328 479l-276 426q-39 62 -58.5 106.5t-19.5 85.5q0 42 37.5 75.5t91.5 33.5q62 0 96.5 -36.5t95.5 -135.5l220 -356l235 356q29 45 49.5 77t39.5 53t42.5 31.5t54.5 10.5q56 0 91.5 -33.5t35.5 -79.5q0 -67 -77 -182l-289 -432l311 -479q42 -63 61 -104.5
t19 -78.5q0 -35 -17 -64t-48 -46t-70 -17q-42 0 -71 17.5t-47 43.5t-67 101l-258 406l-274 -418q-32 -50 -45.5 -70t-32.5 -39t-45 -30t-61 -11q-54 0 -89.5 33t-35.5 96q0 74 73 181z" />
    <glyph glyph-name="Y" unicode="Y" horiz-adv-x="1280" 
d="M487 156v465l-358 555q-47 75 -66.5 117t-19.5 73q0 51 39.5 88t97.5 37q61 0 92.5 -34.5t94.5 -137.5l274 -445l277 445q25 41 42 69t37.5 52.5t45.5 37.5t61 13q56 0 93.5 -36.5t37.5 -84.5q0 -39 -19 -78t-65 -108l-367 -563v-465q0 -91 -42 -136t-107 -45
q-66 0 -107 44.5t-41 136.5z" />
    <glyph glyph-name="Z" unicode="Z" horiz-adv-x="1323" 
d="M121 342l753 901h-647q-68 0 -102.5 30t-34.5 79q0 51 34.5 82.5t102.5 31.5h834q162 0 162 -151q0 -72 -27 -115t-109 -139l-704 -838h776q69 0 103 -28.5t34 -79.5q0 -53 -34 -84t-103 -31h-952q-97 0 -146 43.5t-49 116.5q0 25 8 46t21.5 39.5t37.5 47t42 49.5z" />
    <glyph glyph-name="bracketleft" unicode="[" horiz-adv-x="725" 
d="M573 1278h-167v-1450h167q129 0 129 -107q0 -106 -129 -106h-249q-61 0 -100.5 20t-58 60.5t-18.5 101.5v1512q0 94 42 138t135 44h249q65 0 97 -29t32 -78q0 -106 -129 -106z" />
    <glyph glyph-name="backslash" unicode="\" horiz-adv-x="575" 
d="M248 1331l280 -1153q21 -82 21 -115q0 -88 -103 -88q-42 0 -63.5 18.5t-30.5 45t-26 96.5l-279 1153q-20 86 -20 113q0 42 26.5 66t75.5 24q59 0 78 -34t41 -126z" />
    <glyph glyph-name="bracketright" unicode="]" horiz-adv-x="725" 
d="M319 -172v1450h-165q-64 0 -97.5 29.5t-33.5 76.5q0 48 33.5 77.5t97.5 29.5h247q92 0 134.5 -44t42.5 -138v-1512q0 -93 -42 -137.5t-135 -44.5h-247q-64 0 -97.5 29.5t-33.5 76.5q0 48 33.5 77.5t97.5 29.5h165z" />
    <glyph glyph-name="asciicircum" unicode="^" horiz-adv-x="1194" 
d="M401 692h-286l377 799h221l366 -799h-282l-199 490z" />
    <glyph glyph-name="underscore" unicode="_" horiz-adv-x="1024" 
d="M-12 -256v102h1048v-102h-1048z" />
    <glyph glyph-name="grave" unicode="`" horiz-adv-x="682" 
d="M424 1364l45 -84q27 -43 27 -59q0 -25 -43 -25q-66 0 -123 29q-28 14 -138 119t-110 118q0 15 51 15h135q59 0 89 -21t67 -92z" />
    <glyph glyph-name="a" unicode="a" 
d="M831 129q-99 -77 -191.5 -115.5t-207.5 -38.5q-105 0 -184.5 41.5t-122.5 112.5t-43 154q0 112 71 191t195 106q26 6 129 27t176.5 38.5t159.5 42.5q-5 108 -43.5 158.5t-159.5 50.5q-104 0 -156.5 -29t-90 -87t-53 -76.5t-66.5 -18.5q-46 0 -79.5 29.5t-33.5 75.5
q0 72 51 140t159 112t269 44q180 0 283 -42.5t145.5 -134.5t42.5 -244q0 -96 -0.5 -163t-1.5 -149q0 -77 25.5 -160.5t25.5 -107.5q0 -42 -39.5 -76.5t-89.5 -34.5q-42 0 -83 39.5t-87 114.5zM813 524q-60 -22 -174.5 -46.5t-158.5 -36t-84 -45t-40 -93.5q0 -62 47 -105.5
t123 -43.5q81 0 149.5 35.5t100.5 91.5q37 62 37 204v39z" />
    <glyph glyph-name="b" unicode="b" horiz-adv-x="1280" 
d="M393 1335v-417q77 80 157 122.5t198 42.5q136 0 238.5 -64.5t159 -187t56.5 -290.5q0 -124 -31.5 -227.5t-91.5 -179.5t-145.5 -117.5t-188.5 -41.5q-63 0 -118.5 15t-94.5 39.5t-66.5 50.5t-72.5 78v-27q0 -77 -37 -116.5t-94 -39.5q-58 0 -92.5 39.5t-34.5 116.5v1192
q0 83 33.5 125.5t93.5 42.5q63 0 97 -40.5t34 -115.5zM406 524q0 -163 74.5 -250.5t195.5 -87.5q103 0 177.5 89.5t74.5 256.5q0 108 -31 186t-88 120.5t-133 42.5q-78 0 -139 -42.5t-96 -123t-35 -191.5z" />
    <glyph glyph-name="c" unicode="c" 
d="M1120 313q0 -51 -30.5 -109t-93 -110.5t-157.5 -84.5t-214 -32q-253 0 -395 147.5t-142 395.5q0 168 65 297t188 199.5t294 70.5q106 0 194.5 -31t150 -80t94 -104.5t32.5 -103.5q0 -49 -36.5 -83t-88.5 -34q-34 0 -56.5 17.5t-50.5 56.5q-50 76 -104.5 114t-138.5 38
q-121 0 -195 -94.5t-74 -258.5q0 -77 19 -141.5t55 -110t87 -69t112 -23.5q82 0 140.5 38t103.5 116q25 46 54 72t71 26q50 0 83 -38t33 -81z" />
    <glyph glyph-name="d" unicode="d" horiz-adv-x="1280" 
d="M889 131v27q-55 -63 -108.5 -102.5t-116 -60t-136.5 -20.5q-98 0 -181.5 41.5t-144.5 118.5t-92.5 181t-31.5 225q0 256 125 399t329 143q118 0 199 -40.5t158 -124.5v403q0 84 33.5 127t95.5 43t95.5 -39.5t33.5 -116.5v-1204q0 -78 -36 -117t-93 -39q-56 0 -92.5 40.5
t-36.5 115.5zM352 532q0 -111 34.5 -189t94.5 -117.5t131 -39.5q72 0 131.5 37.5t95 115t35.5 193.5q0 109 -35.5 187.5t-96 120t-132.5 41.5q-75 0 -134 -42.5t-91.5 -122t-32.5 -184.5z" />
    <glyph glyph-name="e" unicode="e" 
d="M903 463h-534q1 -93 37.5 -164t97 -107t133.5 -36q49 0 89.5 11.5t78.5 36t70 52.5t83 76q21 18 60 18q42 0 68 -23t26 -65q0 -37 -29 -86.5t-87.5 -95t-147 -75.5t-203.5 -30q-263 0 -409 150t-146 407q0 121 36 224.5t105 177.5t170 113.5t224 39.5q160 0 274.5 -67.5
t171.5 -174.5t57 -218q0 -103 -59 -133.5t-166 -30.5zM369 618h495q-10 140 -75.5 209.5t-172.5 69.5q-102 0 -167.5 -70.5t-79.5 -208.5z" />
    <glyph glyph-name="f" unicode="f" horiz-adv-x="682" 
d="M119 1061h65v82q0 128 32.5 203.5t110 110t212.5 34.5q239 0 239 -117q0 -38 -25 -65t-59 -27q-16 0 -55 6t-66 6q-74 0 -95 -43.5t-21 -124.5v-65h67q156 0 156 -94q0 -67 -41.5 -85t-114.5 -18h-67v-723q0 -81 -38.5 -123.5t-99.5 -42.5q-58 0 -96.5 42.5t-38.5 123.5
v723h-75q-61 0 -94 27.5t-33 71.5q0 98 137 98z" />
    <glyph glyph-name="g" unicode="g" horiz-adv-x="1280" 
d="M1145 885v-793q0 -136 -29 -234t-93 -162t-167.5 -95t-257.5 -31q-141 0 -252 39.5t-171 102t-60 128.5q0 50 34 81.5t82 31.5q60 0 105 -53q22 -27 45.5 -54.5t52 -47t68.5 -29t92 -9.5q106 0 164.5 29.5t82 82.5t27.5 113.5t6 194.5q-63 -88 -145.5 -134t-196.5 -46
q-137 0 -239.5 70t-157.5 196t-55 291q0 123 33.5 222t95.5 167t143 102.5t178 34.5q116 0 201 -44.5t158 -139.5v37q0 71 35 110t90 39q79 0 105 -51.5t26 -148.5zM354 539q0 -166 72.5 -251t187.5 -85q68 0 128.5 36.5t98.5 110t38 178.5q0 167 -73.5 260t-193.5 93
q-117 0 -187.5 -89t-70.5 -253z" />
    <glyph glyph-name="h" unicode="h" horiz-adv-x="1237" 
d="M408 1325v-405q52 60 101.5 95t109.5 52.5t129 17.5q104 0 184.5 -44t126.5 -128q29 -49 39 -109.5t10 -139.5v-523q0 -82 -37.5 -124t-99.5 -42q-135 0 -135 166v461q0 131 -39 201.5t-148 70.5q-73 0 -131.5 -41.5t-87.5 -113.5q-22 -61 -22 -217v-361
q0 -81 -36.5 -123.5t-101.5 -42.5q-135 0 -135 166v1184q0 83 35.5 124.5t99.5 41.5q65 0 101.5 -42t36.5 -124z" />
    <glyph glyph-name="i" unicode="i" horiz-adv-x="555" 
d="M414 930v-789q0 -82 -39 -124t-99 -42t-97.5 43t-37.5 123v781q0 81 37.5 122t97.5 41t99 -41t39 -114zM279 1212q-57 0 -97.5 35t-40.5 99q0 58 41.5 95.5t96.5 37.5q53 0 94 -34t41 -99q0 -63 -40 -98.5t-95 -35.5z" />
    <glyph glyph-name="j" unicode="j" horiz-adv-x="555" 
d="M416 922v-926q0 -99 -6.5 -161.5t-18.5 -90.5q-68 -174 -289 -174q-124 0 -188 34t-64 99q0 48 29 78.5t76 30.5q6 0 19.5 -1.5t40 -3.5t36.5 -2q55 0 73.5 43t18.5 154v920q0 81 38 122t100 41q60 0 97.5 -40.5t37.5 -122.5zM281 1212q-57 0 -97.5 35t-40.5 99
q0 58 41.5 95.5t96.5 37.5q53 0 94 -34t41 -99q0 -63 -40 -98.5t-95 -35.5z" />
    <glyph glyph-name="k" unicode="k" horiz-adv-x="1174" 
d="M821 100l-241 396l-148 -140v-217q0 -79 -41.5 -121.5t-95.5 -42.5q-63 0 -99 42t-36 124v1164q0 91 35 138.5t100 47.5q63 0 100 -43t37 -127v-662l307 322q57 60 87 82t73 22q51 0 85 -32.5t34 -81.5q0 -60 -111 -160l-145 -133l280 -440q31 -49 44.5 -74.5t13.5 -48.5
q0 -65 -35.5 -102.5t-93.5 -37.5q-50 0 -77 27t-73 98z" />
    <glyph glyph-name="l" unicode="l" horiz-adv-x="555" 
d="M141 141v1184q0 82 36.5 124t98.5 42t100 -41.5t38 -124.5v-1184q0 -83 -38.5 -124.5t-99.5 -41.5q-60 0 -97.5 43t-37.5 123z" />
    <glyph glyph-name="m" unicode="m" horiz-adv-x="1812" 
d="M1049 510v-363q0 -86 -39 -129t-103 -43q-62 0 -100.5 43t-38.5 129v435q0 103 -7 160t-38 93.5t-98 36.5q-134 0 -176.5 -92t-42.5 -264v-369q0 -85 -38.5 -128.5t-101.5 -43.5q-62 0 -101.5 43.5t-39.5 128.5v781q0 77 35.5 117t93.5 40q56 0 93.5 -37.5t37.5 -103.5
v-26q71 85 152 125t180 40q103 0 177 -41t122 -124q69 84 148 124.5t175 40.5q112 0 193 -44t121 -126q35 -74 35 -233v-533q0 -86 -39 -129t-103 -43q-62 0 -101.5 43.5t-39.5 128.5v459q0 88 -7.5 141t-40.5 89t-100 36q-54 0 -102.5 -32t-75.5 -86q-30 -69 -30 -244z" />
    <glyph glyph-name="n" unicode="n" horiz-adv-x="1237" 
d="M389 934v-33q72 95 157.5 139.5t196.5 44.5q108 0 193 -47t127 -133q27 -50 35 -108t8 -148v-508q0 -82 -37.5 -124t-97.5 -42q-61 0 -99 43t-38 123v455q0 135 -37.5 206.5t-149.5 71.5q-73 0 -133 -43.5t-88 -119.5q-20 -61 -20 -228v-342q0 -83 -38.5 -124.5
t-99.5 -41.5q-59 0 -97 43t-38 123v789q0 78 34 116.5t93 38.5q36 0 65 -17t46.5 -51t17.5 -83z" />
    <glyph glyph-name="o" unicode="o" horiz-adv-x="1237" 
d="M1163 530q0 -122 -38 -225t-110 -177t-172 -113.5t-225 -39.5q-124 0 -223 40t-171.5 114.5t-110 176t-37.5 224.5q0 124 38 227t109 176t172 112.5t223 39.5q124 0 225 -40t173 -114t109.5 -176t37.5 -225zM889 530q0 167 -73.5 260t-197.5 93q-80 0 -141 -41.5
t-94 -122.5t-33 -189q0 -107 32.5 -187t93 -122.5t142.5 -42.5q124 0 197.5 93.5t73.5 258.5z" />
    <glyph glyph-name="p" unicode="p" horiz-adv-x="1280" 
d="M393 932v-33q77 95 160 139.5t188 44.5q126 0 232 -65t167.5 -190t61.5 -296q0 -126 -35.5 -231.5t-97.5 -177t-146.5 -110t-181.5 -38.5q-117 0 -196.5 47t-151.5 138v-410q0 -180 -131 -180q-77 0 -102 46.5t-25 135.5v1178q0 78 34 116.5t93 38.5q58 0 94.5 -39.5
t36.5 -113.5zM928 535q0 108 -33 185.5t-91.5 119t-129.5 41.5q-113 0 -190.5 -89t-77.5 -262q0 -163 77 -253.5t191 -90.5q68 0 126 39.5t93 118.5t35 191z" />
    <glyph glyph-name="q" unicode="q" horiz-adv-x="1280" 
d="M889 -248v385q-79 -79 -164.5 -120.5t-189.5 -41.5q-127 0 -231.5 67t-164 192.5t-59.5 295.5q0 174 60 298.5t166.5 189.5t236.5 65q110 0 197 -45.5t149 -138.5v33q0 75 36 114t93 39t93 -38.5t36 -114.5v-1180q0 -182 -129 -182q-80 0 -104.5 49t-24.5 133zM354 532
q0 -110 35.5 -189.5t93.5 -118t125 -38.5q73 0 134 38.5t98 117.5t37 195q0 82 -21.5 148t-58.5 109.5t-85 65t-102 21.5q-110 0 -183 -91t-73 -258z" />
    <glyph glyph-name="r" unicode="r" horiz-adv-x="897" 
d="M412 369v-228q0 -83 -39 -124.5t-99 -41.5q-59 0 -97 42t-38 124v760q0 184 133 184q68 0 98 -43t33 -127q49 84 100.5 127t137.5 43t167 -43t81 -114q0 -50 -34.5 -82.5t-74.5 -32.5q-15 0 -72.5 18.5t-101.5 18.5q-60 0 -98 -31.5t-59 -93.5t-29 -147.5t-8 -208.5z" />
    <glyph glyph-name="s" unicode="s" horiz-adv-x="1110" 
d="M1020 332q0 -113 -55 -193.5t-162.5 -122t-261.5 -41.5q-147 0 -252 45t-155 112.5t-50 135.5q0 45 32 77t81 32q43 0 66 -21t44 -59q42 -73 100.5 -109t159.5 -36q82 0 134.5 36.5t52.5 83.5q0 72 -54.5 105t-179.5 63q-141 35 -229.5 73.5t-141.5 101.5t-53 155
q0 82 49 155t144.5 116.5t230.5 43.5q106 0 190.5 -22t141 -59t86 -82t29.5 -88q0 -47 -31.5 -77t-89.5 -30q-42 0 -71.5 24t-67.5 72q-31 40 -73 64t-114 24q-74 0 -123 -31.5t-49 -78.5q0 -43 36 -70.5t97 -45.5t168 -44q127 -31 207.5 -74t122 -101.5t41.5 -133.5z" />
    <glyph glyph-name="t" unicode="t" horiz-adv-x="725" 
d="M156 1061h30v164q0 66 3.5 103.5t19.5 64.5q16 28 46 45.5t67 17.5q52 0 94 -39q28 -26 35.5 -63.5t7.5 -106.5v-186h100q58 0 88.5 -27.5t30.5 -70.5q0 -55 -43.5 -77t-124.5 -22h-51v-502q0 -64 4.5 -98.5t24 -56t63.5 -21.5q24 0 65 8.5t64 8.5q33 0 59.5 -26.5
t26.5 -65.5q0 -66 -72 -101t-207 -35q-128 0 -194 43t-86.5 119t-20.5 203v524h-36q-59 0 -90 28t-31 71t32.5 70.5t94.5 27.5z" />
    <glyph glyph-name="u" unicode="u" horiz-adv-x="1237" 
d="M850 129v35q-49 -62 -103 -104t-118 -62.5t-146 -20.5q-99 0 -177.5 41t-121.5 113q-51 87 -51 250v541q0 82 37 122.5t98 40.5q62 0 100 -41t38 -122v-437q0 -95 16 -159.5t57.5 -101t112.5 -36.5q69 0 130 41t89 107q23 58 23 254v332q0 81 38 122t99 41t98 -40.5
t37 -122.5v-791q0 -78 -35.5 -117t-91.5 -39t-92.5 40.5t-36.5 113.5z" />
    <glyph glyph-name="v" unicode="v" horiz-adv-x="1110" 
d="M334 915l221 -620l238 647q28 78 55 110.5t82 32.5q52 0 88.5 -35t36.5 -81q0 -18 -6.5 -42t-15 -45t-19.5 -48l-262 -650q-11 -28 -28.5 -71t-39 -73.5t-53 -47.5t-76.5 -17q-58 0 -92.5 26.5t-51 58t-55.5 124.5l-260 643q-9 24 -18.5 48t-16 49t-6.5 43q0 28 17 55.5
t47 45t65 17.5q68 0 93.5 -39t56.5 -131z" />
    <glyph glyph-name="w" unicode="w" horiz-adv-x="1665" 
d="M311 915l178 -610l162 567q26 89 38.5 121.5t47 62t94.5 29.5q61 0 95.5 -29.5t48.5 -64t39 -119.5l162 -567l180 610q18 66 29 95.5t37 52t75 22.5t85 -34t36 -80q0 -42 -31 -127l-223 -654q-29 -83 -45 -120t-50.5 -66t-94.5 -29q-62 0 -97.5 31t-52.5 76t-37 117
l-156 532l-151 -532q-30 -111 -65 -167.5t-123 -56.5q-45 0 -76.5 17.5t-52.5 50t-37 77t-25 70.5l-221 654q-33 92 -33 127q0 44 35 79t86 35q68 0 92 -38.5t51 -131.5z" />
    <glyph glyph-name="x" unicode="x" horiz-adv-x="1067" 
d="M733 88l-198 291l-203 -291q-44 -61 -74.5 -87t-77.5 -26q-52 0 -88.5 32.5t-36.5 74.5q0 43 56 123l247 354l-219 295q-57 73 -57 127q0 42 34 73t89 31q48 0 79.5 -27t73.5 -85l177 -242l172 242q43 60 74.5 86t78.5 26q54 0 89.5 -30.5t35.5 -73.5q0 -31 -14.5 -59.5
t-44.5 -67.5l-219 -295l247 -354q58 -83 58 -125q0 -43 -36 -74t-89 -31q-47 0 -79.5 27t-74.5 86z" />
    <glyph glyph-name="y" unicode="y" horiz-adv-x="1110" 
d="M393 -59l25 61l-336 846q-31 73 -31 106q0 35 18 65t49.5 48t65.5 18q59 0 89 -37.5t53 -107.5l231 -672l219 625q26 76 47 119t44.5 58t66.5 15q31 0 59.5 -16.5t44 -44.5t15.5 -59q-4 -19 -13 -54t-22 -71l-356 -932q-46 -123 -90 -193t-116.5 -107.5t-195.5 -37.5
q-120 0 -180 26t-60 95q0 47 28.5 72.5t84.5 25.5q22 0 43 -6q26 -6 45 -6q47 0 74 14t48.5 48.5t49.5 101.5z" />
    <glyph glyph-name="z" unicode="z" horiz-adv-x="1067" 
d="M883 772l-500 -559h535q65 0 98 -30.5t33 -78.5q0 -46 -32.5 -75t-98.5 -29h-740q-78 0 -116.5 34t-38.5 93q0 35 27 70.5t112 130.5q90 100 163.5 181t136.5 151.5t104.5 119.5t66.5 84h-406q-84 0 -127 15t-43 79q0 47 32.5 75t92.5 28h627q87 0 133.5 -25.5
t46.5 -91.5q0 -22 -9 -45.5t-20 -38.5t-30 -36.5t-47 -51.5z" />
    <glyph glyph-name="braceleft" unicode="{" horiz-adv-x="788" 
d="M352 530q71 -44 111 -98.5t56 -139t16 -216.5q0 -99 4.5 -146t18 -71.5t32.5 -32t65 -14.5q38 -5 63 -37t25 -84q0 -121 -147 -121q-91 0 -162.5 38t-110.5 107.5t-40 159.5q-3 152 -6 244t-9 119q-15 67 -44.5 101t-77 63.5t-67.5 53t-20 74.5q0 74 58 111
q72 45 102.5 76.5t43 81t14.5 108t6 281.5q3 138 87.5 220.5t225.5 82.5q147 0 147 -119q0 -54 -24.5 -85t-63.5 -36q-58 -8 -81 -24t-30 -62t-9 -178q-2 -129 -15.5 -211.5t-53 -140.5t-114.5 -105z" />
    <glyph glyph-name="bar" unicode="|" horiz-adv-x="575" 
d="M399 1354v-1647q0 -68 -30.5 -102.5t-79.5 -34.5t-81 35t-32 102v1647q0 67 32 102t81 35t79.5 -35.5t30.5 -101.5z" />
    <glyph glyph-name="braceright" unicode="}" horiz-adv-x="788" 
d="M436 530q-54 34 -88 71t-56 90t-31 125.5t-9 170.5q0 95 -4 145.5t-16 73.5t-33.5 31.5t-65.5 13.5q-37 5 -62.5 36t-25.5 85q0 119 145 119q93 0 163.5 -37.5t111 -107t41.5 -158.5q6 -332 14 -365q16 -66 47 -100.5t75 -61t65.5 -52.5t21.5 -79q0 -75 -57 -110
q-70 -43 -101.5 -75.5t-44 -81t-15 -145.5t-5.5 -243q-3 -138 -88.5 -221.5t-227.5 -83.5q-70 0 -107.5 31t-37.5 90q0 33 12 60.5t31.5 42.5t44.5 18q45 6 67 15t33.5 34t15 73.5t3.5 141.5q2 138 16 216t53 134t115 104z" />
    <glyph glyph-name="asciitilde" unicode="~" horiz-adv-x="1194" 
d="M338 657q-141 0 -272 -137v258q66 74 138.5 105.5t162.5 31.5q69 0 131.5 -18t128.5 -44.5t129 -49.5t98 -23q63 0 135.5 37t138.5 107v-269q-30 -31 -78.5 -62.5t-99.5 -51t-96 -19.5q-72 0 -133.5 17t-140 50.5t-129.5 50.5t-113 17z" />
    <glyph glyph-name="nonbreakingspace" unicode="&#xa0;" horiz-adv-x="512" 
 />
    <glyph glyph-name="exclamdown" unicode="&#xa1;" horiz-adv-x="682" 
d="M342 1085q62 0 106 -39.5t44 -109.5q0 -62 -45 -106t-107 -44q-56 0 -103 47t-47 103q0 71 44.5 110t107.5 39zM449 428l34 -481q9 -144 9 -199q0 -84 -42.5 -131t-115.5 -47q-83 0 -113.5 60t-30.5 173q0 56 7 131l43 494q7 89 29 136.5t75 47.5q54 0 76 -47.5
t29 -136.5z" />
    <glyph glyph-name="cent" unicode="&#xa2;" 
d="M940 1348l-94 -293q79 -30 138.5 -79.5t90.5 -104t31 -97.5q0 -48 -37 -82.5t-88 -34.5q-42 0 -61.5 20.5t-61 78t-82.5 84.5l-205 -654q45 -6 64 -6q86 0 135.5 33t94 100t68.5 93t71 26q49 0 82.5 -36.5t33.5 -84.5q0 -49 -31 -107t-93.5 -109.5t-157 -84.5t-213.5 -33
q-61 0 -117 9l-90 -283q-12 -40 -29 -65t-41 -25q-67 0 -67 61q0 17 20 82l84 262q-95 41 -161.5 113.5t-101 172.5t-34.5 222q0 85 16 159.5t48 137.5t79 115q48 52 109 85.5t132.5 47.5t162.5 14q59 0 86 -4l96 301q12 39 28.5 59.5t45.5 20.5q59 0 59 -67q0 -22 -10 -47z
M461 252l196 627q-20 4 -26 4q-78 0 -139 -41.5t-95.5 -121t-34.5 -190.5q0 -195 99 -278z" />
    <glyph glyph-name="sterling" unicode="&#xa3;" 
d="M494 823h149q82 0 127 -16.5t45 -77.5q0 -42 -30 -68t-78 -26h-177v-17q0 -101 -45.5 -185.5t-158.5 -211.5q33 8 65.5 15t73 12.5t88.5 5.5q67 0 187 -15.5t159 -15.5q57 0 122.5 20.5t82.5 20.5q45 0 80 -36t35 -85q0 -83 -93.5 -127.5t-199.5 -44.5q-65 0 -369 70
q-8 2 -27 8t-47 10t-67 4q-42 0 -74 -12t-110.5 -44t-106.5 -32q-38 0 -74.5 34.5t-36.5 90.5q0 21 13 44t41 52.5t84 77.5q51 43 85.5 120.5t34.5 152.5q0 26 -10 88h-84q-74 0 -111.5 18t-37.5 72q0 98 127 98h59q-49 156 -49 246q0 123 58 219t166 150.5t247 54.5
q123 0 211 -30.5t156 -100.5q116 -121 116 -258q0 -49 -38 -87t-93 -38q-97 0 -129 108q-29 104 -79.5 153.5t-135.5 49.5q-92 0 -148.5 -59.5t-56.5 -153.5q0 -57 12 -106.5t42 -147.5z" />
    <glyph glyph-name="currency" unicode="&#xa4;" horiz-adv-x="1130" 
d="M176 938q-43 44 -61.5 70t-18.5 67q0 55 31.5 88t87.5 33q36 0 66.5 -20.5t68.5 -59.5q106 55 215 55q71 0 122.5 -15.5t94.5 -39.5q44 44 70 62t63 18q56 0 87.5 -34t31.5 -87q0 -40 -19.5 -69.5t-58.5 -67.5q52 -99 52 -209q0 -58 -13 -107.5t-39 -101.5q40 -38 59 -67
t19 -70q0 -53 -32 -87t-87 -34q-35 0 -60 17t-73 63q-100 -53 -217 -53q-68 0 -113 12.5t-102 40.5q-40 -40 -69.5 -60t-65.5 -20q-56 0 -87.5 33.5t-31.5 87.5q0 40 20 69.5t60 67.5q-53 110 -53 209q0 108 53 209zM365 729q0 -55 27 -102.5t72.5 -75t100.5 -27.5
t101.5 27.5t74 74.5t27.5 103q0 55 -27.5 101.5t-74.5 73t-101 26.5q-55 0 -101 -27t-72.5 -74t-26.5 -100z" />
    <glyph glyph-name="yen" unicode="&#xa5;" horiz-adv-x="1280" 
d="M287 444h225v144h-225q-142 0 -142 94q0 92 142 92h127l-299 469q-36 56 -47 80t-11 53q0 52 31.5 83.5t81.5 31.5q51 0 82.5 -31t73.5 -100l323 -506l289 477q16 28 34 58.5t35 52t42.5 35.5t60.5 14q50 0 81.5 -30.5t31.5 -74.5q0 -35 -12.5 -64t-39.5 -73l-288 -475
h127q141 0 141 -92q0 -94 -141 -94h-226v-144h226q141 0 141 -94q0 -92 -141 -92h-226v-80q0 -203 -135 -203q-137 0 -137 203v80h-225q-142 0 -142 92q0 94 142 94z" />
    <glyph glyph-name="brokenbar" unicode="&#xa6;" horiz-adv-x="575" 
d="M399 223v-467q0 -87 -17 -136.5t-93 -49.5q-49 0 -81 35t-32 102v516q0 67 32 102t81 35t79.5 -35.5t30.5 -101.5zM399 1354v-516q0 -70 -30.5 -104t-79.5 -34t-81 35t-32 103v516q0 67 32 102t81 35t79.5 -35.5t30.5 -101.5z" />
    <glyph glyph-name="section" unicode="&#xa7;" 
d="M172 1163q0 88 49.5 163.5t146 121t228.5 45.5q98 0 181.5 -26t142 -69.5t89.5 -95t31 -102.5q0 -40 -35 -71t-79 -31q-42 0 -65.5 20.5t-64 70t-82 75.5t-108.5 26q-77 0 -122.5 -37t-45.5 -86q0 -51 39 -87.5t131.5 -86.5t122.5 -69q88 -52 157.5 -92.5t126.5 -88
t89.5 -110t32.5 -146.5q0 -94 -51 -170.5t-148 -130.5q135 -112 135 -264q0 -72 -30.5 -136t-89.5 -113t-140 -76t-178 -27q-117 0 -206 31.5t-153.5 86.5t-95 115.5t-30.5 114.5q0 50 36 88.5t90 38.5q21 0 42.5 -8.5t31.5 -20.5q50 -63 72 -110q58 -133 205 -133
q81 0 130.5 43.5t49.5 101.5q0 40 -28 74.5t-80.5 70.5t-160.5 102.5t-219 137.5q-42 28 -87 59.5t-79 68.5t-53.5 85.5t-19.5 114.5q0 182 211 293q-119 102 -119 239zM426 813q-117 -75 -117 -154q0 -41 29.5 -76t79.5 -67.5t155 -95.5q31 -18 85 -50.5t106 -60.5
q119 85 119 152q0 36 -21 66.5t-57 58.5t-89.5 60.5t-137.5 80.5l-102 58.5t-50 27.5z" />
    <glyph glyph-name="dieresis" unicode="&#xa8;" horiz-adv-x="682" 
d="M147 1219q-43 0 -77.5 30t-34.5 82q0 50 33 81.5t79 31.5q45 0 79 -28.5t34 -84.5q0 -52 -34 -82t-79 -30zM537 1444q28 0 55 -15t42 -42t15 -56q0 -52 -33 -82t-79 -30q-44 0 -78.5 30t-34.5 82q0 45 34 79t79 34z" />
    <glyph glyph-name="copyright" unicode="&#xa9;" horiz-adv-x="1516" 
d="M1106 907l-164 -39q-53 140 -178 140q-96 0 -150.5 -74t-54.5 -197q0 -97 23 -163.5t67.5 -100t106.5 -33.5q138 0 188 172l162 -55q-80 -260 -354 -260q-98 0 -182.5 48t-135.5 146t-51 234q0 127 47 222.5t134.5 148.5t205.5 53q248 0 336 -242zM758 1491
q157 0 296.5 -58.5t246 -165t165 -246t58.5 -296.5q0 -206 -103.5 -382.5t-279.5 -279t-383 -102.5q-210 0 -385.5 102t-278 278.5t-102.5 383.5q0 208 102.5 384.5t279 279t384.5 102.5zM758 1341q-169 0 -309.5 -83t-223 -224.5t-82.5 -308.5q0 -168 82.5 -308.5
t223.5 -223t309 -82.5q167 0 309 82t224.5 222.5t82.5 309.5q0 166 -83 308t-224.5 225t-308.5 83z" />
    <glyph glyph-name="ordfeminine" unicode="&#xaa;" horiz-adv-x="768" 
d="M524 895q-71 -45 -125 -65.5t-129 -20.5q-105 0 -170 57t-65 138q0 70 35.5 111.5t95.5 61.5t181.5 44t154.5 32q-4 52 -25.5 75.5t-91.5 23.5q-80 0 -102.5 -17.5t-55 -62.5t-75.5 -45q-34 0 -60 21t-26 55q0 46 34.5 89.5t106 71t178.5 27.5q175 0 244 -60t69 -202
q0 -63 -0.5 -101t-1.5 -84q0 -43 16.5 -90.5t16.5 -66.5q0 -33 -28.5 -56.5t-65.5 -23.5q-20 0 -40 12t-36.5 30.5t-34.5 45.5zM504 1114v12q-10 -2 -112.5 -25t-129 -38t-26.5 -47t26 -54t70 -22q80 0 126 43.5t46 130.5z" />
    <glyph glyph-name="guillemotleft" unicode="&#xab;" 
d="M543 813l-181 -289l191 -303q27 -38 27 -71q0 -36 -27 -61.5t-66 -25.5q-30 0 -55.5 20t-62.5 75l-179 268q-43 66 -43 96q0 36 43 103l185 276q54 82 110 82q38 0 65.5 -24.5t27.5 -59.5q0 -27 -11.5 -47t-23.5 -39zM1001 813l-180 -289l191 -303q28 -45 28 -71
q0 -36 -27 -61.5t-67 -25.5q-31 0 -56.5 20t-62.5 75l-176 268q-45 72 -45 96q0 33 45 103l183 276q52 82 112 82q37 0 64.5 -25t27.5 -59q0 -19 -5 -32.5t-11 -22t-21 -31.5z" />
    <glyph glyph-name="logicalnot" unicode="&#xac;" horiz-adv-x="1194" 
d="M1110 377h-258v438h-768v262h1026v-700z" />
    <glyph glyph-name="registered" unicode="&#xae;" horiz-adv-x="1516" 
d="M578 315h-166v813h385q90 0 151 -28.5t92 -81t31 -121.5q0 -86 -58 -148.5t-161 -76.5q53 -20 85.5 -59.5t86.5 -133.5l96 -164h-205l-67 131q-47 88 -80 130.5t-66 57.5t-81 15h-43v-334zM578 999v-221h133q90 0 137 23.5t47 93.5q0 48 -41 76t-127 28h-149zM758 1491
q157 0 296.5 -58.5t246 -165t165 -246t58.5 -296.5q0 -208 -102.5 -384.5t-279 -279t-384.5 -102.5t-384.5 102.5t-279 279t-102.5 384.5t102.5 384.5t279 279t384.5 102.5zM760 1341q-167 0 -309 -82.5t-225 -224.5t-83 -309t83.5 -309.5t225.5 -224.5t308 -82
q169 0 309.5 82.5t222.5 224.5t82 309q0 168 -82 310t-223 224t-309 82z" />
    <glyph glyph-name="glyph112" unicode="&#xaf;" horiz-adv-x="1024" 
d="M-12 1654v102h1048v-102h-1048z" />
    <glyph glyph-name="degree" unicode="&#xb0;" horiz-adv-x="811" 
d="M86 1171q0 66 26 126t69.5 102.5t101.5 67t123 24.5q85 0 159 -42.5t117 -116.5t43 -161q0 -86 -43 -159.5t-116 -115.5t-160 -42q-132 0 -226 93t-94 224zM252 1171q0 -63 46 -107t108 -44t106.5 43.5t44.5 107.5q0 43 -20.5 78t-56 55.5t-74.5 20.5q-63 0 -108.5 -45.5
t-45.5 -108.5z" />
    <glyph glyph-name="plusminus" unicode="&#xb1;" horiz-adv-x="1194" 
d="M725 356h-258v381h-383v262h383v381h258v-381h385v-262h-385v-381zM1110 0h-1026v262h1026v-262z" />
    <glyph glyph-name="twosuperior" unicode="&#xb2;" horiz-adv-x="725" 
d="M598 723h-434q-51 0 -79 25t-28 59q0 36 25 68.5t65 65.5t121 95q7 5 81.5 56.5t105 85.5t30.5 75q0 44 -33.5 69.5t-86.5 25.5q-56 0 -83.5 -22t-49 -65.5t-37.5 -61t-56 -17.5q-34 0 -57 20.5t-23 54.5q0 49 34 99.5t104 83.5t172 33q153 0 228 -63.5t75 -154.5
q0 -83 -59 -144.5t-168.5 -134t-141.5 -108.5h277q51 0 78.5 -19.5t27.5 -53.5q0 -29 -22.5 -50.5t-65.5 -21.5z" />
    <glyph glyph-name="threesuperior" unicode="&#xb3;" horiz-adv-x="725" 
d="M291 1051q-32 0 -54 17t-22 46q0 31 23.5 49.5t64.5 18.5h37q43 0 79 23t36 65q0 36 -27.5 58t-75.5 22q-42 0 -66 -11.5t-34 -27t-33 -60.5q-4 -10 -23.5 -20t-39.5 -10q-33 0 -55.5 21.5t-22.5 49.5q0 43 35 85t100 70t152 28q83 0 145.5 -26t96.5 -70t34 -99
q0 -48 -23 -82.5t-65 -69.5q62 -30 94.5 -76t32.5 -102q0 -100 -90 -172.5t-234 -72.5q-93 0 -163 35.5t-106 86.5t-36 93q0 28 25 50.5t63 22.5q21 0 41 -10.5t25 -24.5q31 -69 61.5 -99t89.5 -30q55 0 96.5 32t41.5 85q0 51 -33.5 81t-91.5 30q-14 0 -21.5 -0.5
t-18.5 -1.5t-21.5 -2.5t-16.5 -1.5z" />
    <glyph glyph-name="acute" unicode="&#xb4;" horiz-adv-x="682" 
d="M422 1477h135q51 0 51 -15q0 -8 -56 -65t-113 -109t-79 -63q-57 -29 -122 -29q-43 0 -43 25q0 17 26 59l45 84q39 73 68 93t88 20z" />
    <glyph glyph-name="mu" unicode="&#xb5;" horiz-adv-x="1260" 
d="M856 0v129q-42 -80 -98.5 -118t-114.5 -38q-82 0 -128 41.5t-85 114.5v-537h-278v1469h278v-479q0 -62 16 -209q8 -66 59.5 -119t123.5 -53q94 0 149.5 78.5t55.5 236.5v545h284v-1061h-262z" />
    <glyph glyph-name="paragraph" unicode="&#xb6;" horiz-adv-x="1153" 
d="M852 1386h-188v-1785h-103v903q-71 3 -125.5 10t-109.5 23.5t-103 44.5t-88 67q-133 133 -133 340q0 250 178 385q77 59 190 75.5t326 16.5h430v-80h-170v-1785h-104v1785z" />
    <glyph glyph-name="cedilla" unicode="&#xb8;" horiz-adv-x="682" 
d="M215 -96q9 73 143 73q77 0 138 -30t94 -75.5t33 -92.5q0 -54 -36 -97.5t-107 -67.5t-175 -24q-199 0 -199 66q0 20 14.5 34.5t39.5 14.5q3 0 51 -4t86 -4q71 0 109 22t38 60q0 34 -27.5 54t-84.5 20q-22 0 -48.5 -6.5t-29.5 -6.5q-17 0 -29 15t-12 34q1 4 1.5 7t0.5 8z
" />
    <glyph glyph-name="onesuperior" unicode="&#xb9;" horiz-adv-x="725" 
d="M332 805v422q-140 -86 -189 -86q-30 0 -52.5 19.5t-22.5 47.5q0 51 92 80q65 22 106.5 52t74 69t48.5 52.5t47 13.5q37 0 59.5 -24.5t22.5 -66.5v-559q0 -114 -94 -114q-40 0 -66 25t-26 69z" />
    <glyph glyph-name="ordmasculine" unicode="&#xba;" horiz-adv-x="788" 
d="M756 1149q0 -101 -44 -177.5t-125 -119.5t-192 -43q-164 0 -262 94.5t-98 245.5q0 101 44 179t126 121.5t190 43.5t190 -43.5t126.5 -121.5t44.5 -179zM555 1149q0 92 -42.5 143t-117.5 51q-74 0 -116.5 -51t-42.5 -143q0 -91 42 -141t117 -50q76 0 118 50t42 141z" />
    <glyph glyph-name="guillemotright" unicode="&#xbb;" 
d="M664 221l190 303l-180 289q-12 16 -19 27t-12.5 25.5t-5.5 33.5q0 34 28 59t64 25q59 0 113 -82l182 -276q23 -35 34 -56.5t11 -46.5q0 -29 -45 -96l-176 -268q-36 -55 -62.5 -75t-56.5 -20q-39 0 -66.5 25t-27.5 62q0 34 29 71zM205 221l190 303l-180 289
q-10 16 -18.5 28.5t-13.5 27.5t-5 30q0 34 28 59t64 25q57 0 111 -82l184 -276q43 -63 43 -103q0 -31 -43 -96l-176 -268q-36 -55 -62.5 -75t-56.5 -20q-40 0 -67 25.5t-27 61.5q0 30 29 71z" />
    <glyph glyph-name="onequarter" unicode="&#xbc;" horiz-adv-x="1749" 
d="M332 805v422q-140 -86 -189 -86q-30 0 -52.5 19.5t-22.5 47.5q0 51 92 80q65 22 106.5 52t74 69t48.5 52.5t47 13.5q37 0 59.5 -24.5t22.5 -66.5v-559q0 -114 -94 -114q-40 0 -66 25t-26 69zM1438 76v78h-285q-61 0 -92 25.5t-31 66.5q0 24 14.5 43t42.5 49l314 348
q31 35 54 52.5t52 17.5q49 0 76 -26t27 -75v-364h41q40 0 63 -20.5t23 -49.5q0 -67 -103 -67h-24v-78q0 -44 -24.5 -66t-61.5 -22t-61.5 21.5t-24.5 66.5zM1227 291h211v237zM1356 1343l-834 -1343q-32 -55 -71 -55q-24 0 -47 17.5t-23 45.5q0 21 20 51l840 1354
q9 14 17.5 28t17 24t21 16t30.5 6q32 0 49 -18t17 -46q0 -18 -37 -80z" />
    <glyph glyph-name="onehalf" unicode="&#xbd;" horiz-adv-x="1749" 
d="M332 805v422q-140 -86 -189 -86q-30 0 -52.5 19.5t-22.5 47.5q0 51 92 80q65 22 106.5 52t74 69t48.5 52.5t47 13.5q37 0 59.5 -24.5t22.5 -66.5v-559q0 -114 -94 -114q-40 0 -66 25t-26 69zM1622 0h-434q-50 0 -78.5 24t-28.5 58q0 36 25 68.5t65 65.5t121 95
q7 5 81.5 56.5t105 85.5t30.5 75q0 42 -34.5 69.5t-85.5 27.5q-56 0 -83 -21t-46 -62.5t-37 -62t-58 -20.5q-34 0 -58 19t-24 54q0 50 34 101t104.5 84t171.5 33q105 0 172 -30t99 -80t32 -108q0 -65 -38.5 -117.5t-114 -106.5t-132.5 -93.5t-84 -71.5h277q51 0 78.5 -19
t27.5 -52q0 -29 -22.5 -50.5t-65.5 -21.5zM1339 1343l-833 -1343q-34 -55 -74 -55q-24 0 -47 17.5t-23 45.5q0 20 21 51l840 1354q23 40 38.5 57t47.5 17q30 0 47.5 -17.5t17.5 -46.5q0 -24 -35 -80z" />
    <glyph glyph-name="threequarters" unicode="&#xbe;" horiz-adv-x="1749" 
d="M1440 76v78h-285q-123 0 -123 92q0 24 12.5 40.5t45.5 51.5l313 348q35 37 55.5 53.5t50.5 16.5q49 0 75 -26t26 -75v-364h43q41 0 62.5 -20.5t21.5 -49.5q0 -67 -103 -67h-24v-78q0 -45 -23 -66.5t-61 -21.5q-86 0 -86 88zM1229 291h211v237zM1395 1343l-834 -1343
q-32 -55 -74 -55q-24 0 -46.5 18t-22.5 45q0 21 20 51l840 1354q23 40 38.5 57t47.5 17q31 0 48.5 -17.5t17.5 -46.5q0 -11 -4.5 -24t-13.5 -27.5t-17 -28.5zM293 1051q-32 0 -54 17t-22 46q0 31 23.5 49.5t64.5 18.5h37q43 0 79 23t36 65q0 36 -27.5 58t-75.5 22
q-42 0 -66 -11.5t-34 -27t-33 -60.5q-4 -10 -23.5 -20t-39.5 -10q-33 0 -55.5 21.5t-22.5 49.5q0 43 35 85t100 70t152 28q83 0 145.5 -26t96.5 -70t34 -99q0 -48 -23 -82.5t-65 -69.5q62 -30 94.5 -76t32.5 -102q0 -100 -90 -172.5t-234 -72.5q-93 0 -163 35.5t-106 86.5
t-36 93q0 28 25 50.5t63 22.5q21 0 41 -10.5t25 -24.5q31 -69 61.5 -99t89.5 -30q55 0 96.5 32t41.5 85q0 50 -33.5 80.5t-91.5 30.5q-14 0 -21.5 -0.5t-18.5 -1.5t-21.5 -2.5t-16.5 -1.5z" />
    <glyph glyph-name="questiondown" unicode="&#xbf;" horiz-adv-x="1174" 
d="M1083 -10q0 -67 -33 -140.5t-99.5 -137.5t-162 -102t-217.5 -38q-143 0 -254.5 53.5t-171 145t-59.5 198.5q0 62 20.5 116.5t57 99.5t66 72t141.5 128q66 60 83.5 94.5t32.5 112.5q20 102 119 102q53 0 88 -34t35 -101q0 -66 -15.5 -116t-43 -90.5t-59 -72t-93.5 -85.5
q-86 -75 -122 -120t-36 -104q0 -78 59 -133t152 -55q77 0 125.5 28.5t76 76t48.5 114.5q20 55 48.5 84t82.5 29q57 0 94 -39.5t37 -85.5zM598 1085q62 0 106 -39.5t44 -109.5q0 -37 -21.5 -72t-56.5 -56.5t-72 -21.5q-42 0 -76.5 20t-55 53.5t-20.5 76.5q0 71 44.5 110
t107.5 39z" />
    <glyph glyph-name="Agrave" unicode="&#xc0;" horiz-adv-x="1473" 
d="M55 0zM1098 166l-70 184h-596l-70 -188q-41 -110 -70 -148.5t-95 -38.5q-56 0 -99 41t-43 93q0 30 10 62t33 89l375 952q16 41 38.5 98.5t48 95.5t67 61.5t102.5 23.5q62 0 103.5 -23.5t67 -60.5t43 -79.5t44.5 -113.5l383 -946q45 -108 45 -157q0 -51 -42.5 -93.5
t-102.5 -42.5q-35 0 -60 12.5t-42 34t-36.5 66t-33.5 78.5zM510 573h438l-221 605zM766 1735l45 -84q27 -43 27 -59q0 -25 -43 -25q-66 0 -123 29q-28 14 -138 119t-110 118q0 15 51 15h135q59 0 89 -21t67 -92z" />
    <glyph glyph-name="Aacute" unicode="&#xc1;" horiz-adv-x="1473" 
d="M55 0zM1098 166l-70 184h-596l-70 -188q-41 -110 -70 -148.5t-95 -38.5q-56 0 -99 41t-43 93q0 30 10 62t33 89l375 952q16 41 38.5 98.5t48 95.5t67 61.5t102.5 23.5q62 0 103.5 -23.5t67 -60.5t43 -79.5t44.5 -113.5l383 -946q45 -108 45 -157q0 -51 -42.5 -93.5
t-102.5 -42.5q-35 0 -60 12.5t-42 34t-36.5 66t-33.5 78.5zM510 573h438l-221 605zM764 1848h135q51 0 51 -15q0 -8 -56 -65t-113 -109t-79 -63q-57 -29 -122 -29q-43 0 -43 25q0 17 26 59l45 84q39 73 68 93t88 20z" />
    <glyph glyph-name="Acircumflex" unicode="&#xc2;" horiz-adv-x="1473" 
d="M55 0zM1098 166l-70 184h-596l-70 -188q-41 -110 -70 -148.5t-95 -38.5q-56 0 -99 41t-43 93q0 30 10 62t33 89l375 952q16 41 38.5 98.5t48 95.5t67 61.5t102.5 23.5q62 0 103.5 -23.5t67 -60.5t43 -79.5t44.5 -113.5l383 -946q45 -108 45 -157q0 -51 -42.5 -93.5
t-102.5 -42.5q-35 0 -60 12.5t-42 34t-36.5 66t-33.5 78.5zM510 573h438l-221 605zM784 1643l-100 117l-100 -117q-42 -50 -57 -61t-56 -11h-80q-41 0 -41 14q0 11 31 50l111 133q14 17 32 39.5t31.5 32t39.5 15t60 5.5h56q66 0 90.5 -16t72.5 -76l115 -135q29 -38 29 -45
q0 -17 -45 -17h-76q-30 0 -47.5 8.5t-33.5 26.5t-32 37z" />
    <glyph glyph-name="Atilde" unicode="&#xc3;" horiz-adv-x="1473" 
d="M55 0zM1098 166l-70 184h-596l-70 -188q-41 -110 -70 -148.5t-95 -38.5q-56 0 -99 41t-43 93q0 30 10 62t33 89l375 952q16 41 38.5 98.5t48 95.5t67 61.5t102.5 23.5q62 0 103.5 -23.5t67 -60.5t43 -79.5t44.5 -113.5l383 -946q45 -108 45 -157q0 -51 -42.5 -93.5
t-102.5 -42.5q-35 0 -60 12.5t-42 34t-36.5 66t-33.5 78.5zM510 573h438l-221 605zM524 1682q-51 0 -69 -68q-18 -59 -54 -59q-22 0 -39.5 20.5t-17.5 57.5q0 50 22 96.5t61.5 74t84.5 27.5t83.5 -13t103 -42.5t88.5 -38t53 -8.5t45.5 14.5t25.5 52.5q16 58 54 58
q23 0 40 -21t17 -57q0 -56 -42.5 -126.5t-131.5 -70.5q-34 0 -70 11.5t-99 39.5t-94 40t-61 12z" />
    <glyph glyph-name="Adieresis" unicode="&#xc4;" horiz-adv-x="1473" 
d="M55 0zM1098 166l-70 184h-596l-70 -188q-41 -110 -70 -148.5t-95 -38.5q-56 0 -99 41t-43 93q0 30 10 62t33 89l375 952q16 41 38.5 98.5t48 95.5t67 61.5t102.5 23.5q62 0 103.5 -23.5t67 -60.5t43 -79.5t44.5 -113.5l383 -946q45 -108 45 -157q0 -51 -42.5 -93.5
t-102.5 -42.5q-35 0 -60 12.5t-42 34t-36.5 66t-33.5 78.5zM510 573h438l-221 605zM489 1590q-43 0 -77.5 30t-34.5 82q0 50 33 81.5t79 31.5q45 0 79 -28.5t34 -84.5q0 -52 -34 -82t-79 -30zM879 1815q28 0 55 -15t42 -42t15 -56q0 -52 -33 -82t-79 -30q-44 0 -78.5 30
t-34.5 82q0 45 34 79t79 34z" />
    <glyph glyph-name="Aring" unicode="&#xc5;" horiz-adv-x="1473" 
d="M55 0zM1098 166l-70 184h-596l-70 -188q-41 -110 -70 -148.5t-95 -38.5q-56 0 -99 41t-43 93q0 30 10 62t33 89l375 952q16 41 38.5 98.5t48 95.5t67 61.5t102.5 23.5q62 0 103.5 -23.5t67 -60.5t43 -79.5t44.5 -113.5l383 -946q45 -108 45 -157q0 -51 -42.5 -93.5
t-102.5 -42.5q-35 0 -60 12.5t-42 34t-36.5 66t-33.5 78.5zM510 573h438l-221 605zM682 1938q85 0 146 -61t61 -146t-61 -146t-146 -61q-57 0 -104 28t-75 75t-28 104q0 85 61 146t146 61zM682 1833q-44 0 -73 -29t-29 -73q0 -43 29.5 -71.5t72.5 -28.5q28 0 51.5 13t37 36
t13.5 51q0 21 -8 40.5t-21 32.5t-32.5 21t-40.5 8z" />
    <glyph glyph-name="AE" unicode="&#xc6;" horiz-adv-x="2028" 
d="M924 352h-527l-90 -207q-34 -80 -75.5 -125t-108.5 -45q-59 0 -94 32.5t-35 76.5q0 30 4.5 51t10 33.5t24.5 52.5l491 1067q42 89 59.5 118t50.5 44.5t99 15.5h1061q70 0 104.5 -31.5t34.5 -82.5q0 -50 -34 -79.5t-105 -29.5h-584v-366h533q68 0 101.5 -31t33.5 -82
t-34 -81t-101 -30h-533v-430h605q72 0 107.5 -28t35.5 -80q0 -53 -35.5 -84t-107.5 -31h-713q-93 0 -135.5 41.5t-42.5 132.5v178zM494 588h430v665h-142z" />
    <glyph glyph-name="Ccedilla" unicode="&#xc7;" horiz-adv-x="1516" 
d="M813 -25l-6 -22q101 -17 156 -58.5t55 -117.5q0 -59 -38 -105t-114.5 -72t-183.5 -26q-53 0 -99.5 6t-97.5 21q-7 2 -14.5 16t-7.5 25q0 32 24.5 43.5t69.5 11.5q16 0 25 -0.5t24.5 -1.5t33.5 -2.5t30 -1.5q161 0 161 86q0 34 -28.5 56t-75.5 22q-19 0 -53 -6.5t-41 -6.5
q-18 0 -32.5 16t-14.5 38q0 63 164 79q-72 6 -146 21.5t-135 44.5t-115 76q-76 64 -134 158t-88 209t-30 247q0 177 51.5 317t147.5 239.5t225 151.5t275 52q178 0 317 -71t213 -175.5t74 -197.5q0 -51 -36 -90t-87 -39q-45 0 -75 20.5t-56 65.5q-39 73 -78.5 126.5t-105 89
t-164.5 35.5q-183 0 -291.5 -139t-108.5 -395q0 -171 48 -285t135.5 -170.5t206.5 -56.5q135 0 229.5 75.5t120.5 176.5q34 131 137 131q53 0 91 -37t38 -92t-26 -125t-77 -137.5t-122 -118.5q-144 -104 -371 -107z" />
    <glyph glyph-name="Egrave" unicode="&#xc8;" horiz-adv-x="1366" 
d="M160 0zM1126 1237h-669v-360h616q68 0 101.5 -30.5t33.5 -80.5t-33 -81.5t-102 -31.5h-616v-417h692q70 0 105.5 -32.5t35.5 -86.5q0 -52 -35.5 -84.5t-105.5 -32.5h-807q-97 0 -139.5 43t-42.5 139v1102q0 64 19 104.5t59.5 59t103.5 18.5h784q71 0 105.5 -31.5
t34.5 -82.5q0 -52 -34.5 -83.5t-105.5 -31.5zM766 1735l45 -84q27 -43 27 -59q0 -25 -43 -25q-66 0 -123 29q-28 14 -138 119t-110 118q0 15 51 15h135q59 0 89 -21t67 -92z" />
    <glyph glyph-name="Eacute" unicode="&#xc9;" horiz-adv-x="1366" 
d="M160 0zM1126 1237h-669v-360h616q68 0 101.5 -30.5t33.5 -80.5t-33 -81.5t-102 -31.5h-616v-417h692q70 0 105.5 -32.5t35.5 -86.5q0 -52 -35.5 -84.5t-105.5 -32.5h-807q-97 0 -139.5 43t-42.5 139v1102q0 64 19 104.5t59.5 59t103.5 18.5h784q71 0 105.5 -31.5
t34.5 -82.5q0 -52 -34.5 -83.5t-105.5 -31.5zM764 1848h135q51 0 51 -15q0 -8 -56 -65t-113 -109t-79 -63q-57 -29 -122 -29q-43 0 -43 25q0 17 26 59l45 84q39 73 68 93t88 20z" />
    <glyph glyph-name="Ecircumflex" unicode="&#xca;" horiz-adv-x="1366" 
d="M160 0zM1126 1237h-669v-360h616q68 0 101.5 -30.5t33.5 -80.5t-33 -81.5t-102 -31.5h-616v-417h692q70 0 105.5 -32.5t35.5 -86.5q0 -52 -35.5 -84.5t-105.5 -32.5h-807q-97 0 -139.5 43t-42.5 139v1102q0 64 19 104.5t59.5 59t103.5 18.5h784q71 0 105.5 -31.5
t34.5 -82.5q0 -52 -34.5 -83.5t-105.5 -31.5zM784 1643l-100 117l-100 -117q-42 -50 -57 -61t-56 -11h-80q-41 0 -41 14q0 11 31 50l111 133q14 17 32 39.5t31.5 32t39.5 15t60 5.5h56q66 0 90.5 -16t72.5 -76l115 -135q29 -38 29 -45q0 -17 -45 -17h-76q-30 0 -47.5 8.5
t-33.5 26.5t-32 37z" />
    <glyph glyph-name="Edieresis" unicode="&#xcb;" horiz-adv-x="1366" 
d="M160 0zM1126 1237h-669v-360h616q68 0 101.5 -30.5t33.5 -80.5t-33 -81.5t-102 -31.5h-616v-417h692q70 0 105.5 -32.5t35.5 -86.5q0 -52 -35.5 -84.5t-105.5 -32.5h-807q-97 0 -139.5 43t-42.5 139v1102q0 64 19 104.5t59.5 59t103.5 18.5h784q71 0 105.5 -31.5
t34.5 -82.5q0 -52 -34.5 -83.5t-105.5 -31.5zM489 1590q-43 0 -77.5 30t-34.5 82q0 50 33 81.5t79 31.5q45 0 79 -28.5t34 -84.5q0 -52 -34 -82t-79 -30zM879 1815q28 0 55 -15t42 -42t15 -56q0 -52 -33 -82t-79 -30q-44 0 -78.5 30t-34.5 82q0 45 34 79t79 34z" />
    <glyph glyph-name="Igrave" unicode="&#xcc;" horiz-adv-x="641" 
d="M27 0zM172 156v1155q0 90 41 135t106 45q67 0 108.5 -44.5t41.5 -135.5v-1155q0 -91 -41.5 -136t-108.5 -45q-64 0 -105.5 45.5t-41.5 135.5zM369 1735l45 -84q27 -43 27 -59q0 -25 -43 -25q-66 0 -123 29q-28 14 -138 119t-110 118q0 15 51 15h135q59 0 89 -21t67 -92z
" />
    <glyph glyph-name="Iacute" unicode="&#xcd;" horiz-adv-x="641" 
d="M140 0zM172 156v1155q0 90 41 135t106 45q67 0 108.5 -44.5t41.5 -135.5v-1155q0 -91 -41.5 -136t-108.5 -45q-64 0 -105.5 45.5t-41.5 135.5zM367 1848h135q51 0 51 -15q0 -8 -56 -65t-113 -109t-79 -63q-57 -29 -122 -29q-43 0 -43 25q0 17 26 59l45 84q39 73 68 93
t88 20z" />
    <glyph glyph-name="Icircumflex" unicode="&#xce;" horiz-adv-x="641" 
d="M0 0zM172 156v1155q0 90 41 135t106 45q67 0 108.5 -44.5t41.5 -135.5v-1155q0 -91 -41.5 -136t-108.5 -45q-64 0 -105.5 45.5t-41.5 135.5zM387 1643l-100 117l-100 -117q-42 -50 -57 -61t-56 -11h-80q-41 0 -41 14q0 11 31 50l111 133q14 17 32 39.5t31.5 32t39.5 15
t60 5.5h56q66 0 90.5 -16t72.5 -76l115 -135q29 -38 29 -45q0 -17 -45 -17h-76q-30 0 -47.5 8.5t-33.5 26.5t-32 37z" />
    <glyph glyph-name="Idieresis" unicode="&#xcf;" horiz-adv-x="641" 
d="M0 0zM172 156v1155q0 90 41 135t106 45q67 0 108.5 -44.5t41.5 -135.5v-1155q0 -91 -41.5 -136t-108.5 -45q-64 0 -105.5 45.5t-41.5 135.5zM92 1590q-43 0 -77.5 30t-34.5 82q0 50 33 81.5t79 31.5q45 0 79 -28.5t34 -84.5q0 -52 -34 -82t-79 -30zM482 1815q28 0 55 -15
t42 -42t15 -56q0 -52 -33 -82t-79 -30q-44 0 -78.5 30t-34.5 82q0 45 34 79t79 34z" />
    <glyph glyph-name="Eth" unicode="&#xd0;" horiz-adv-x="1516" 
d="M162 209v430h-43q-119 0 -119 94t119 94h43v457q0 96 43 139t139 43h387q151 0 258 -28t197 -105q229 -196 229 -596q0 -201 -52 -346t-167 -248q-87 -78 -197 -110.5t-264 -32.5h-385q-81 0 -122 24.5t-53.5 69t-12.5 115.5zM686 639h-227v-403h223q132 0 206.5 25
t135.5 110q90 126 90 368q0 167 -39.5 268t-104.5 149t-141 61.5t-176 13.5h-194v-404h166q81 0 120 -14.5t39 -79.5q0 -44 -27 -69t-71 -25z" />
    <glyph glyph-name="Ntilde" unicode="&#xd1;" horiz-adv-x="1556" 
d="M164 0zM547 1313l571 -864v872q0 85 36.5 127.5t98.5 42.5q64 0 101 -42.5t37 -127.5v-1153q0 -193 -160 -193q-40 0 -72 11.5t-60 36.5t-52 58.5t-48 68.5l-557 854v-859q0 -84 -39 -127t-100 -43q-63 0 -101 43.5t-38 126.5v1131q0 72 16 113q19 45 63 73.5t95 28.5
q40 0 68.5 -13t50 -35t44 -57t46.5 -73zM579 1682q-51 0 -69 -68q-18 -59 -54 -59q-22 0 -39.5 20.5t-17.5 57.5q0 50 22 96.5t61.5 74t84.5 27.5t83.5 -13t103 -42.5t88.5 -38t53 -8.5t45.5 14.5t25.5 52.5q16 58 54 58q23 0 40 -21t17 -57q0 -56 -42.5 -126.5
t-131.5 -70.5q-34 0 -70 11.5t-99 39.5t-94 40t-61 12z" />
    <glyph glyph-name="Ograve" unicode="&#xd2;" horiz-adv-x="1622" 
d="M92 0zM805 1491q228 0 391.5 -92.5t247.5 -263t84 -400.5q0 -170 -46 -309t-138 -241t-226 -156t-307 -54q-172 0 -308 55.5t-227 156.5t-137.5 243t-46.5 307q0 169 48.5 310t140.5 240t224 151.5t300 52.5zM1227 737q0 161 -52 279t-148.5 178.5t-221.5 60.5
q-89 0 -164.5 -33.5t-130 -97.5t-86 -163.5t-31.5 -223.5q0 -125 31.5 -226t89 -167.5t132 -99.5t163.5 -33q114 0 209.5 57t152 176t56.5 293zM924 1735l45 -84q27 -43 27 -59q0 -25 -43 -25q-66 0 -123 29q-28 14 -138 119t-110 118q0 15 51 15h135q59 0 89 -21t67 -92z
" />
    <glyph glyph-name="Oacute" unicode="&#xd3;" horiz-adv-x="1622" 
d="M92 0zM805 1491q228 0 391.5 -92.5t247.5 -263t84 -400.5q0 -170 -46 -309t-138 -241t-226 -156t-307 -54q-172 0 -308 55.5t-227 156.5t-137.5 243t-46.5 307q0 169 48.5 310t140.5 240t224 151.5t300 52.5zM1227 737q0 161 -52 279t-148.5 178.5t-221.5 60.5
q-89 0 -164.5 -33.5t-130 -97.5t-86 -163.5t-31.5 -223.5q0 -125 31.5 -226t89 -167.5t132 -99.5t163.5 -33q114 0 209.5 57t152 176t56.5 293zM922 1848h135q51 0 51 -15q0 -8 -56 -65t-113 -109t-79 -63q-57 -29 -122 -29q-43 0 -43 25q0 17 26 59l45 84q39 73 68 93
t88 20z" />
    <glyph glyph-name="Ocircumflex" unicode="&#xd4;" horiz-adv-x="1622" 
d="M92 0zM805 1491q228 0 391.5 -92.5t247.5 -263t84 -400.5q0 -170 -46 -309t-138 -241t-226 -156t-307 -54q-172 0 -308 55.5t-227 156.5t-137.5 243t-46.5 307q0 169 48.5 310t140.5 240t224 151.5t300 52.5zM1227 737q0 161 -52 279t-148.5 178.5t-221.5 60.5
q-89 0 -164.5 -33.5t-130 -97.5t-86 -163.5t-31.5 -223.5q0 -125 31.5 -226t89 -167.5t132 -99.5t163.5 -33q114 0 209.5 57t152 176t56.5 293zM942 1643l-100 117l-100 -117q-42 -50 -57 -61t-56 -11h-80q-41 0 -41 14q0 11 31 50l111 133q14 17 32 39.5t31.5 32t39.5 15
t60 5.5h56q66 0 90.5 -16t72.5 -76l115 -135q29 -38 29 -45q0 -17 -45 -17h-76q-30 0 -47.5 8.5t-33.5 26.5t-32 37z" />
    <glyph glyph-name="Otilde" unicode="&#xd5;" horiz-adv-x="1622" 
d="M92 0zM805 1491q228 0 391.5 -92.5t247.5 -263t84 -400.5q0 -170 -46 -309t-138 -241t-226 -156t-307 -54q-172 0 -308 55.5t-227 156.5t-137.5 243t-46.5 307q0 169 48.5 310t140.5 240t224 151.5t300 52.5zM1227 737q0 161 -52 279t-148.5 178.5t-221.5 60.5
q-89 0 -164.5 -33.5t-130 -97.5t-86 -163.5t-31.5 -223.5q0 -125 31.5 -226t89 -167.5t132 -99.5t163.5 -33q114 0 209.5 57t152 176t56.5 293zM682 1682q-51 0 -69 -68q-18 -59 -54 -59q-22 0 -39.5 20.5t-17.5 57.5q0 50 22 96.5t61.5 74t84.5 27.5t83.5 -13t103 -42.5
t88.5 -38t53 -8.5t45.5 14.5t25.5 52.5q16 58 54 58q23 0 40 -21t17 -57q0 -56 -42.5 -126.5t-131.5 -70.5q-34 0 -70 11.5t-99 39.5t-94 40t-61 12z" />
    <glyph glyph-name="Odieresis" unicode="&#xd6;" horiz-adv-x="1622" 
d="M92 0zM805 1491q228 0 391.5 -92.5t247.5 -263t84 -400.5q0 -170 -46 -309t-138 -241t-226 -156t-307 -54q-172 0 -308 55.5t-227 156.5t-137.5 243t-46.5 307q0 169 48.5 310t140.5 240t224 151.5t300 52.5zM1227 737q0 161 -52 279t-148.5 178.5t-221.5 60.5
q-89 0 -164.5 -33.5t-130 -97.5t-86 -163.5t-31.5 -223.5q0 -125 31.5 -226t89 -167.5t132 -99.5t163.5 -33q114 0 209.5 57t152 176t56.5 293zM647 1590q-43 0 -77.5 30t-34.5 82q0 50 33 81.5t79 31.5q45 0 79 -28.5t34 -84.5q0 -52 -34 -82t-79 -30zM1037 1815
q28 0 55 -15t42 -42t15 -56q0 -52 -33 -82t-79 -30q-44 0 -78.5 30t-34.5 82q0 45 34 79t79 34z" />
    <glyph glyph-name="multiply" unicode="&#xd7;" horiz-adv-x="1194" 
d="M293 238l-182 182l301 301l-303 305l186 184l303 -303l303 303l180 -182l-301 -303l303 -303l-184 -186l-305 305z" />
    <glyph glyph-name="Oslash" unicode="&#xd8;" horiz-adv-x="1622" 
d="M190 215l35 37q-67 98 -100 220t-33 265q0 169 48.5 310t140.5 240t224 151.5t300 52.5q144 0 257 -33.5t206 -105.5l26 28q63 66 96.5 89.5t67.5 23.5q32 0 52 -21t20 -57q0 -60 -92 -155l-41 -43q131 -193 131 -482q0 -170 -46 -309t-138 -241t-226 -156t-307 -54
q-284 0 -459 140l-22 -27q-24 -26 -50.5 -53.5t-53 -43.5t-60.5 -16q-32 0 -53 23t-21 51q0 40 23.5 77t74.5 89zM436 473l643 682q-47 46 -119.5 73t-150.5 27q-125 0 -219.5 -60.5t-145.5 -178t-51 -279.5q0 -148 43 -264zM1184 991l-641 -678q111 -102 266 -102
q114 0 209.5 57t152 176t56.5 293q0 139 -43 254z" />
    <glyph glyph-name="Ugrave" unicode="&#xd9;" horiz-adv-x="1556" 
d="M162 0zM162 606v705q0 90 40.5 135t106.5 45q69 0 109.5 -45t40.5 -135v-721q0 -123 27.5 -205.5t97.5 -128t196 -45.5q174 0 246 92.5t72 280.5v727q0 91 40 135.5t107 44.5t108.5 -44.5t41.5 -135.5v-705q0 -172 -33.5 -287t-126.5 -202q-80 -74 -186 -108t-248 -34
q-169 0 -291 36.5t-199 113t-113 196t-36 285.5zM821 1735l45 -84q27 -43 27 -59q0 -25 -43 -25q-66 0 -123 29q-28 14 -138 119t-110 118q0 15 51 15h135q59 0 89 -21t67 -92z" />
    <glyph glyph-name="Uacute" unicode="&#xda;" horiz-adv-x="1556" 
d="M162 0zM162 606v705q0 90 40.5 135t106.5 45q69 0 109.5 -45t40.5 -135v-721q0 -123 27.5 -205.5t97.5 -128t196 -45.5q174 0 246 92.5t72 280.5v727q0 91 40 135.5t107 44.5t108.5 -44.5t41.5 -135.5v-705q0 -172 -33.5 -287t-126.5 -202q-80 -74 -186 -108t-248 -34
q-169 0 -291 36.5t-199 113t-113 196t-36 285.5zM819 1848h135q51 0 51 -15q0 -8 -56 -65t-113 -109t-79 -63q-57 -29 -122 -29q-43 0 -43 25q0 17 26 59l45 84q39 73 68 93t88 20z" />
    <glyph glyph-name="Ucircumflex" unicode="&#xdb;" horiz-adv-x="1556" 
d="M162 0zM162 606v705q0 90 40.5 135t106.5 45q69 0 109.5 -45t40.5 -135v-721q0 -123 27.5 -205.5t97.5 -128t196 -45.5q174 0 246 92.5t72 280.5v727q0 91 40 135.5t107 44.5t108.5 -44.5t41.5 -135.5v-705q0 -172 -33.5 -287t-126.5 -202q-80 -74 -186 -108t-248 -34
q-169 0 -291 36.5t-199 113t-113 196t-36 285.5zM839 1643l-100 117l-100 -117q-42 -50 -57 -61t-56 -11h-80q-41 0 -41 14q0 11 31 50l111 133q14 17 32 39.5t31.5 32t39.5 15t60 5.5h56q66 0 90.5 -16t72.5 -76l115 -135q29 -38 29 -45q0 -17 -45 -17h-76q-30 0 -47.5 8.5
t-33.5 26.5t-32 37z" />
    <glyph glyph-name="Udieresis" unicode="&#xdc;" horiz-adv-x="1556" 
d="M162 0zM162 606v705q0 90 40.5 135t106.5 45q69 0 109.5 -45t40.5 -135v-721q0 -123 27.5 -205.5t97.5 -128t196 -45.5q174 0 246 92.5t72 280.5v727q0 91 40 135.5t107 44.5t108.5 -44.5t41.5 -135.5v-705q0 -172 -33.5 -287t-126.5 -202q-80 -74 -186 -108t-248 -34
q-169 0 -291 36.5t-199 113t-113 196t-36 285.5zM544 1590q-43 0 -77.5 30t-34.5 82q0 50 33 81.5t79 31.5q45 0 79 -28.5t34 -84.5q0 -52 -34 -82t-79 -30zM934 1815q28 0 55 -15t42 -42t15 -56q0 -52 -33 -82t-79 -30q-44 0 -78.5 30t-34.5 82q0 45 34 79t79 34z" />
    <glyph glyph-name="Yacute" unicode="&#xdd;" horiz-adv-x="1280" 
d="M43 0zM487 156v465l-358 555q-47 75 -66.5 117t-19.5 73q0 51 39.5 88t97.5 37q61 0 92.5 -34.5t94.5 -137.5l274 -445l277 445q25 41 42 69t37.5 52.5t45.5 37.5t61 13q56 0 93.5 -36.5t37.5 -84.5q0 -39 -19 -78t-65 -108l-367 -563v-465q0 -91 -42 -136t-107 -45
q-66 0 -107 44.5t-41 136.5zM764 1848h135q51 0 51 -15q0 -8 -56 -65t-113 -109t-79 -63q-57 -29 -122 -29q-43 0 -43 25q0 17 26 59l45 84q39 73 68 93t88 20z" />
    <glyph glyph-name="Thorn" unicode="&#xde;" horiz-adv-x="1366" 
d="M729 287h-272v-133q0 -89 -42 -134t-108 -45t-106.5 45.5t-40.5 133.5v1159q0 88 39.5 133t107.5 45q41 0 76 -19.5t53 -52.5q16 -26 18.5 -60.5t2.5 -113.5v-65h272q158 0 256.5 -24t173.5 -99q61 -61 90 -139t29 -177q0 -454 -549 -454zM657 956h-200v-446h200
q103 0 174 21t108.5 70.5t37.5 131.5q0 93 -57 158q-64 65 -263 65z" />
    <glyph glyph-name="germandbls" unicode="&#xdf;" 
d="M707 1174q0 53 -38 86.5t-104 33.5q-65 0 -105 -32.5t-56.5 -95.5t-16.5 -152v-877q0 -80 -37 -121t-96 -41t-96 41t-37 121v856q0 62 4.5 113t17.5 100t37 90q57 100 153 147.5t238 47.5q130 0 220.5 -38.5t136 -104.5t45.5 -150q0 -51 -22.5 -111t-57.5 -108
q-66 -90 -66 -152q0 -59 111 -157q76 -68 120 -124t66.5 -114t22.5 -125q0 -93 -45 -169.5t-123.5 -119.5t-175.5 -43q-93 0 -168.5 35t-118.5 86.5t-43 96.5q0 41 30.5 71.5t74.5 30.5q53 0 96 -62q42 -61 106 -61q49 0 85 37t36 88t-47 112t-119 113q-75 56 -124.5 126.5
t-49.5 123.5q0 90 74 207q72 115 72 195z" />
    <glyph glyph-name="agrave" unicode="&#xe0;" 
d="M82 0zM831 129q-99 -77 -191.5 -115.5t-207.5 -38.5q-105 0 -184.5 41.5t-122.5 112.5t-43 154q0 112 71 191t195 106q26 6 129 27t176.5 38.5t159.5 42.5q-5 108 -43.5 158.5t-159.5 50.5q-104 0 -156.5 -29t-90 -87t-53 -76.5t-66.5 -18.5q-46 0 -79.5 29.5t-33.5 75.5
q0 72 51 140t159 112t269 44q180 0 283 -42.5t145.5 -134.5t42.5 -244q0 -96 -0.5 -163t-1.5 -149q0 -77 25.5 -160.5t25.5 -107.5q0 -42 -39.5 -76.5t-89.5 -34.5q-42 0 -83 39.5t-87 114.5zM813 524q-60 -22 -174.5 -46.5t-158.5 -36t-84 -45t-40 -93.5q0 -62 47 -105.5
t123 -43.5q81 0 149.5 35.5t100.5 91.5q37 62 37 204v39zM651 1364l45 -84q27 -43 27 -59q0 -25 -43 -25q-66 0 -123 29q-28 14 -138 119t-110 118q0 15 51 15h135q59 0 89 -21t67 -92z" />
    <glyph glyph-name="aacute" unicode="&#xe1;" 
d="M82 0zM831 129q-99 -77 -191.5 -115.5t-207.5 -38.5q-105 0 -184.5 41.5t-122.5 112.5t-43 154q0 112 71 191t195 106q26 6 129 27t176.5 38.5t159.5 42.5q-5 108 -43.5 158.5t-159.5 50.5q-104 0 -156.5 -29t-90 -87t-53 -76.5t-66.5 -18.5q-46 0 -79.5 29.5t-33.5 75.5
q0 72 51 140t159 112t269 44q180 0 283 -42.5t145.5 -134.5t42.5 -244q0 -96 -0.5 -163t-1.5 -149q0 -77 25.5 -160.5t25.5 -107.5q0 -42 -39.5 -76.5t-89.5 -34.5q-42 0 -83 39.5t-87 114.5zM813 524q-60 -22 -174.5 -46.5t-158.5 -36t-84 -45t-40 -93.5q0 -62 47 -105.5
t123 -43.5q81 0 149.5 35.5t100.5 91.5q37 62 37 204v39zM649 1477h135q51 0 51 -15q0 -8 -56 -65t-113 -109t-79 -63q-57 -29 -122 -29q-43 0 -43 25q0 17 26 59l45 84q39 73 68 93t88 20z" />
    <glyph glyph-name="acircumflex" unicode="&#xe2;" 
d="M82 0zM831 129q-99 -77 -191.5 -115.5t-207.5 -38.5q-105 0 -184.5 41.5t-122.5 112.5t-43 154q0 112 71 191t195 106q26 6 129 27t176.5 38.5t159.5 42.5q-5 108 -43.5 158.5t-159.5 50.5q-104 0 -156.5 -29t-90 -87t-53 -76.5t-66.5 -18.5q-46 0 -79.5 29.5t-33.5 75.5
q0 72 51 140t159 112t269 44q180 0 283 -42.5t145.5 -134.5t42.5 -244q0 -96 -0.5 -163t-1.5 -149q0 -77 25.5 -160.5t25.5 -107.5q0 -42 -39.5 -76.5t-89.5 -34.5q-42 0 -83 39.5t-87 114.5zM813 524q-60 -22 -174.5 -46.5t-158.5 -36t-84 -45t-40 -93.5q0 -62 47 -105.5
t123 -43.5q81 0 149.5 35.5t100.5 91.5q37 62 37 204v39zM669 1272l-100 117l-100 -117q-42 -50 -57 -61t-56 -11h-80q-41 0 -41 14q0 11 31 50l111 133q14 17 32 39.5t31.5 32t39.5 15t60 5.5h56q66 0 90.5 -16t72.5 -76l115 -135q29 -38 29 -45q0 -17 -45 -17h-76
q-30 0 -47.5 8.5t-33.5 26.5t-32 37z" />
    <glyph glyph-name="atilde" unicode="&#xe3;" 
d="M82 0zM831 129q-99 -77 -191.5 -115.5t-207.5 -38.5q-105 0 -184.5 41.5t-122.5 112.5t-43 154q0 112 71 191t195 106q26 6 129 27t176.5 38.5t159.5 42.5q-5 108 -43.5 158.5t-159.5 50.5q-104 0 -156.5 -29t-90 -87t-53 -76.5t-66.5 -18.5q-46 0 -79.5 29.5t-33.5 75.5
q0 72 51 140t159 112t269 44q180 0 283 -42.5t145.5 -134.5t42.5 -244q0 -96 -0.5 -163t-1.5 -149q0 -77 25.5 -160.5t25.5 -107.5q0 -42 -39.5 -76.5t-89.5 -34.5q-42 0 -83 39.5t-87 114.5zM813 524q-60 -22 -174.5 -46.5t-158.5 -36t-84 -45t-40 -93.5q0 -62 47 -105.5
t123 -43.5q81 0 149.5 35.5t100.5 91.5q37 62 37 204v39zM409 1311q-51 0 -69 -68q-18 -59 -54 -59q-22 0 -39.5 20.5t-17.5 57.5q0 50 22 96.5t61.5 74t84.5 27.5t83.5 -13t103 -42.5t88.5 -38t53 -8.5t45.5 14.5t25.5 52.5q16 58 54 58q23 0 40 -21t17 -57
q0 -56 -42.5 -126.5t-131.5 -70.5q-34 0 -70 11.5t-99 39.5t-94 40t-61 12z" />
    <glyph glyph-name="adieresis" unicode="&#xe4;" 
d="M82 0zM831 129q-99 -77 -191.5 -115.5t-207.5 -38.5q-105 0 -184.5 41.5t-122.5 112.5t-43 154q0 112 71 191t195 106q26 6 129 27t176.5 38.5t159.5 42.5q-5 108 -43.5 158.5t-159.5 50.5q-104 0 -156.5 -29t-90 -87t-53 -76.5t-66.5 -18.5q-46 0 -79.5 29.5t-33.5 75.5
q0 72 51 140t159 112t269 44q180 0 283 -42.5t145.5 -134.5t42.5 -244q0 -96 -0.5 -163t-1.5 -149q0 -77 25.5 -160.5t25.5 -107.5q0 -42 -39.5 -76.5t-89.5 -34.5q-42 0 -83 39.5t-87 114.5zM813 524q-60 -22 -174.5 -46.5t-158.5 -36t-84 -45t-40 -93.5q0 -62 47 -105.5
t123 -43.5q81 0 149.5 35.5t100.5 91.5q37 62 37 204v39zM374 1219q-43 0 -77.5 30t-34.5 82q0 50 33 81.5t79 31.5q45 0 79 -28.5t34 -84.5q0 -52 -34 -82t-79 -30zM764 1444q28 0 55 -15t42 -42t15 -56q0 -52 -33 -82t-79 -30q-44 0 -78.5 30t-34.5 82q0 45 34 79t79 34z
" />
    <glyph glyph-name="aring" unicode="&#xe5;" 
d="M82 0zM831 129q-99 -77 -191.5 -115.5t-207.5 -38.5q-105 0 -184.5 41.5t-122.5 112.5t-43 154q0 112 71 191t195 106q26 6 129 27t176.5 38.5t159.5 42.5q-5 108 -43.5 158.5t-159.5 50.5q-104 0 -156.5 -29t-90 -87t-53 -76.5t-66.5 -18.5q-46 0 -79.5 29.5t-33.5 75.5
q0 72 51 140t159 112t269 44q180 0 283 -42.5t145.5 -134.5t42.5 -244q0 -96 -0.5 -163t-1.5 -149q0 -77 25.5 -160.5t25.5 -107.5q0 -42 -39.5 -76.5t-89.5 -34.5q-42 0 -83 39.5t-87 114.5zM813 524q-60 -22 -174.5 -46.5t-158.5 -36t-84 -45t-40 -93.5q0 -62 47 -105.5
t123 -43.5q81 0 149.5 35.5t100.5 91.5q37 62 37 204v39zM567 1567q85 0 146 -61t61 -146t-61 -146t-146 -61q-57 0 -104 28t-75 75t-28 104q0 85 61 146t146 61zM567 1462q-44 0 -73 -29t-29 -73q0 -43 29.5 -71.5t72.5 -28.5q28 0 51.5 13t37 36t13.5 51q0 21 -8 40.5
t-21 32.5t-32.5 21t-40.5 8z" />
    <glyph glyph-name="ae" unicode="&#xe6;" horiz-adv-x="1898" 
d="M1288 1087q164 0 278.5 -61t186.5 -190q57 -102 57 -207q0 -164 -182 -164h-567q3 -97 36 -165t91 -104t139 -36q74 0 144 30.5t104 73.5q49 61 75.5 79.5t57.5 18.5q92 0 92 -108q0 -23 -25 -69.5t-80.5 -94.5t-146.5 -81.5t-215 -33.5q-102 0 -181 18t-139 55.5
t-110 98.5q-207 -172 -450 -172q-174 0 -270.5 87.5t-96.5 216.5q0 247 313 311q354 71 404 96v12q0 107 -37 153t-168 46q-100 0 -148 -30.5t-83 -93t-54 -84t-77 -21.5q-50 0 -79.5 29.5t-29.5 78.5q0 82 52.5 153.5t159 114.5t259.5 43q132 0 215.5 -26t149.5 -92
q78 62 153.5 90t171.5 28zM1061 621h491q-9 137 -73 206.5t-170 69.5q-111 0 -179.5 -80.5t-68.5 -189.5v-6zM803 449v73q-49 -15 -193 -47.5t-197 -66.5t-53 -107q0 -62 47.5 -105.5t129.5 -43.5q75 0 139 35.5t94 91.5q23 40 28 74t5 96z" />
    <glyph glyph-name="ccedilla" unicode="&#xe7;" 
d="M655 -25l-4 -20q106 -9 157.5 -53t51.5 -115q0 -59 -38.5 -103.5t-113.5 -69t-182 -24.5q-184 0 -184 70q0 19 14 33t33 14q4 0 44 -4t73 -4q180 0 180 86q0 31 -27.5 52.5t-68.5 21.5q-16 0 -46 -4.5t-44 -4.5q-25 0 -39.5 18.5t-14.5 39.5q0 48 142 69
q-242 13 -371 159.5t-129 383.5q0 168 65 297t188 199.5t294 70.5q106 0 194.5 -31t150 -80t94 -104.5t32.5 -103.5q0 -49 -36.5 -83t-88.5 -34q-53 0 -90 51q-62 90 -114 132.5t-146 42.5q-121 0 -195 -94.5t-74 -258.5q0 -77 19 -141.5t55 -110t87 -69t112 -23.5
q86 0 135.5 33t94 100t68.5 93t71 26q49 0 82.5 -37t33.5 -82q0 -67 -53.5 -144t-159.5 -132.5t-252 -61.5z" />
    <glyph glyph-name="egrave" unicode="&#xe8;" 
d="M90 0zM903 463h-534q1 -93 37.5 -164t97 -107t133.5 -36q49 0 89.5 11.5t78.5 36t70 52.5t83 76q21 18 60 18q42 0 68 -23t26 -65q0 -37 -29 -86.5t-87.5 -95t-147 -75.5t-203.5 -30q-263 0 -409 150t-146 407q0 121 36 224.5t105 177.5t170 113.5t224 39.5
q160 0 274.5 -67.5t171.5 -174.5t57 -218q0 -103 -59 -133.5t-166 -30.5zM369 618h495q-10 140 -75.5 209.5t-172.5 69.5q-102 0 -167.5 -70.5t-79.5 -208.5zM651 1364l45 -84q27 -43 27 -59q0 -25 -43 -25q-66 0 -123 29q-28 14 -138 119t-110 118q0 15 51 15h135
q59 0 89 -21t67 -92z" />
    <glyph glyph-name="eacute" unicode="&#xe9;" 
d="M90 0zM903 463h-534q1 -93 37.5 -164t97 -107t133.5 -36q49 0 89.5 11.5t78.5 36t70 52.5t83 76q21 18 60 18q42 0 68 -23t26 -65q0 -37 -29 -86.5t-87.5 -95t-147 -75.5t-203.5 -30q-263 0 -409 150t-146 407q0 121 36 224.5t105 177.5t170 113.5t224 39.5
q160 0 274.5 -67.5t171.5 -174.5t57 -218q0 -103 -59 -133.5t-166 -30.5zM369 618h495q-10 140 -75.5 209.5t-172.5 69.5q-102 0 -167.5 -70.5t-79.5 -208.5zM649 1477h135q51 0 51 -15q0 -8 -56 -65t-113 -109t-79 -63q-57 -29 -122 -29q-43 0 -43 25q0 17 26 59l45 84
q39 73 68 93t88 20z" />
    <glyph glyph-name="ecircumflex" unicode="&#xea;" 
d="M90 0zM903 463h-534q1 -93 37.5 -164t97 -107t133.5 -36q49 0 89.5 11.5t78.5 36t70 52.5t83 76q21 18 60 18q42 0 68 -23t26 -65q0 -37 -29 -86.5t-87.5 -95t-147 -75.5t-203.5 -30q-263 0 -409 150t-146 407q0 121 36 224.5t105 177.5t170 113.5t224 39.5
q160 0 274.5 -67.5t171.5 -174.5t57 -218q0 -103 -59 -133.5t-166 -30.5zM369 618h495q-10 140 -75.5 209.5t-172.5 69.5q-102 0 -167.5 -70.5t-79.5 -208.5zM669 1272l-100 117l-100 -117q-42 -50 -57 -61t-56 -11h-80q-41 0 -41 14q0 11 31 50l111 133q14 17 32 39.5
t31.5 32t39.5 15t60 5.5h56q66 0 90.5 -16t72.5 -76l115 -135q29 -38 29 -45q0 -17 -45 -17h-76q-30 0 -47.5 8.5t-33.5 26.5t-32 37z" />
    <glyph glyph-name="edieresis" unicode="&#xeb;" 
d="M90 0zM903 463h-534q1 -93 37.5 -164t97 -107t133.5 -36q49 0 89.5 11.5t78.5 36t70 52.5t83 76q21 18 60 18q42 0 68 -23t26 -65q0 -37 -29 -86.5t-87.5 -95t-147 -75.5t-203.5 -30q-263 0 -409 150t-146 407q0 121 36 224.5t105 177.5t170 113.5t224 39.5
q160 0 274.5 -67.5t171.5 -174.5t57 -218q0 -103 -59 -133.5t-166 -30.5zM369 618h495q-10 140 -75.5 209.5t-172.5 69.5q-102 0 -167.5 -70.5t-79.5 -208.5zM374 1219q-43 0 -77.5 30t-34.5 82q0 50 33 81.5t79 31.5q45 0 79 -28.5t34 -84.5q0 -52 -34 -82t-79 -30z
M764 1444q28 0 55 -15t42 -42t15 -56q0 -52 -33 -82t-79 -30q-44 0 -78.5 30t-34.5 82q0 45 34 79t79 34z" />
    <glyph glyph-name="igrave" unicode="&#xec;" horiz-adv-x="555" 
d="M27 0zM414 930v-789q0 -82 -39 -124t-99 -42t-97.5 43t-37.5 123v781q0 81 37.5 122t97.5 41t99 -41t39 -114zM369 1364l45 -84q27 -43 27 -59q0 -25 -43 -25q-66 0 -123 29q-28 14 -138 119t-110 118q0 15 51 15h135q59 0 89 -21t67 -92z" />
    <glyph glyph-name="iacute" unicode="&#xed;" horiz-adv-x="555" 
d="M140 0zM414 930v-789q0 -82 -39 -124t-99 -42t-97.5 43t-37.5 123v781q0 81 37.5 122t97.5 41t99 -41t39 -114zM367 1477h135q51 0 51 -15q0 -8 -56 -65t-113 -109t-79 -63q-57 -29 -122 -29q-43 0 -43 25q0 17 26 59l45 84q39 73 68 93t88 20z" />
    <glyph glyph-name="icircumflex" unicode="&#xee;" horiz-adv-x="555" 
d="M0 0zM414 930v-789q0 -82 -39 -124t-99 -42t-97.5 43t-37.5 123v781q0 81 37.5 122t97.5 41t99 -41t39 -114zM387 1272l-100 117l-100 -117q-42 -50 -57 -61t-56 -11h-80q-41 0 -41 14q0 11 31 50l111 133q14 17 32 39.5t31.5 32t39.5 15t60 5.5h56q66 0 90.5 -16
t72.5 -76l115 -135q29 -38 29 -45q0 -17 -45 -17h-76q-30 0 -47.5 8.5t-33.5 26.5t-32 37z" />
    <glyph glyph-name="idieresis" unicode="&#xef;" horiz-adv-x="555" 
d="M0 0zM414 930v-789q0 -82 -39 -124t-99 -42t-97.5 43t-37.5 123v781q0 81 37.5 122t97.5 41t99 -41t39 -114zM92 1219q-43 0 -77.5 30t-34.5 82q0 50 33 81.5t79 31.5q45 0 79 -28.5t34 -84.5q0 -52 -34 -82t-79 -30zM482 1444q28 0 55 -15t42 -42t15 -56q0 -52 -33 -82
t-79 -30q-44 0 -78.5 30t-34.5 82q0 45 34 79t79 34z" />
    <glyph glyph-name="eth" unicode="&#xf0;" horiz-adv-x="1237" 
d="M807 1319l-10 -6q123 -118 204 -246t121.5 -260t40.5 -260q0 -175 -68.5 -306t-192 -199.5t-286.5 -68.5q-164 0 -287 71t-190 197t-67 291q0 158 72 278.5t191 185.5t253 65q72 0 135 -27q-32 48 -66.5 87t-70.5 75l-90 -49q-76 -45 -105 -45t-48 24t-19 48
q0 32 22.5 49.5t79.5 50.5l45 24q-53 50 -53 99q0 36 27 65t73 29q45 0 82 -20.5t84 -53.5l53 29q48 27 66.5 35t38.5 8q29 0 48 -22.5t19 -47.5q0 -31 -21.5 -48.5t-80.5 -51.5zM346 520q0 -109 35.5 -186t97 -117.5t137.5 -40.5q74 0 136.5 40t99.5 117t37 185
q0 162 -73.5 251t-197.5 89q-120 0 -196 -91.5t-76 -246.5z" />
    <glyph glyph-name="ntilde" unicode="&#xf1;" horiz-adv-x="1237" 
d="M133 0zM389 934v-33q72 95 157.5 139.5t196.5 44.5q108 0 193 -47t127 -133q27 -50 35 -108t8 -148v-508q0 -82 -37.5 -124t-97.5 -42q-61 0 -99 43t-38 123v455q0 135 -37.5 206.5t-149.5 71.5q-73 0 -133 -43.5t-88 -119.5q-20 -61 -20 -228v-342q0 -83 -38.5 -124.5
t-99.5 -41.5q-59 0 -97 43t-38 123v789q0 78 34 116.5t93 38.5q36 0 65 -17t46.5 -51t17.5 -83zM409 1311q-51 0 -69 -68q-18 -59 -54 -59q-22 0 -39.5 20.5t-17.5 57.5q0 50 22 96.5t61.5 74t84.5 27.5t83.5 -13t103 -42.5t88.5 -38t53 -8.5t45.5 14.5t25.5 52.5
q16 58 54 58q23 0 40 -21t17 -57q0 -56 -42.5 -126.5t-131.5 -70.5q-34 0 -70 11.5t-99 39.5t-94 40t-61 12z" />
    <glyph glyph-name="ograve" unicode="&#xf2;" horiz-adv-x="1237" 
d="M76 0zM1163 530q0 -122 -38 -225t-110 -177t-172 -113.5t-225 -39.5q-124 0 -223 40t-171.5 114.5t-110 176t-37.5 224.5q0 124 38 227t109 176t172 112.5t223 39.5q124 0 225 -40t173 -114t109.5 -176t37.5 -225zM889 530q0 167 -73.5 260t-197.5 93q-80 0 -141 -41.5
t-94 -122.5t-33 -189q0 -107 32.5 -187t93 -122.5t142.5 -42.5q124 0 197.5 93.5t73.5 258.5zM651 1364l45 -84q27 -43 27 -59q0 -25 -43 -25q-66 0 -123 29q-28 14 -138 119t-110 118q0 15 51 15h135q59 0 89 -21t67 -92z" />
    <glyph glyph-name="oacute" unicode="&#xf3;" horiz-adv-x="1237" 
d="M76 0zM1163 530q0 -122 -38 -225t-110 -177t-172 -113.5t-225 -39.5q-124 0 -223 40t-171.5 114.5t-110 176t-37.5 224.5q0 124 38 227t109 176t172 112.5t223 39.5q124 0 225 -40t173 -114t109.5 -176t37.5 -225zM889 530q0 167 -73.5 260t-197.5 93q-80 0 -141 -41.5
t-94 -122.5t-33 -189q0 -107 32.5 -187t93 -122.5t142.5 -42.5q124 0 197.5 93.5t73.5 258.5zM649 1477h135q51 0 51 -15q0 -8 -56 -65t-113 -109t-79 -63q-57 -29 -122 -29q-43 0 -43 25q0 17 26 59l45 84q39 73 68 93t88 20z" />
    <glyph glyph-name="ocircumflex" unicode="&#xf4;" horiz-adv-x="1237" 
d="M76 0zM1163 530q0 -122 -38 -225t-110 -177t-172 -113.5t-225 -39.5q-124 0 -223 40t-171.5 114.5t-110 176t-37.5 224.5q0 124 38 227t109 176t172 112.5t223 39.5q124 0 225 -40t173 -114t109.5 -176t37.5 -225zM889 530q0 167 -73.5 260t-197.5 93q-80 0 -141 -41.5
t-94 -122.5t-33 -189q0 -107 32.5 -187t93 -122.5t142.5 -42.5q124 0 197.5 93.5t73.5 258.5zM669 1272l-100 117l-100 -117q-42 -50 -57 -61t-56 -11h-80q-41 0 -41 14q0 11 31 50l111 133q14 17 32 39.5t31.5 32t39.5 15t60 5.5h56q66 0 90.5 -16t72.5 -76l115 -135
q29 -38 29 -45q0 -17 -45 -17h-76q-30 0 -47.5 8.5t-33.5 26.5t-32 37z" />
    <glyph glyph-name="otilde" unicode="&#xf5;" horiz-adv-x="1237" 
d="M76 0zM1163 530q0 -122 -38 -225t-110 -177t-172 -113.5t-225 -39.5q-124 0 -223 40t-171.5 114.5t-110 176t-37.5 224.5q0 124 38 227t109 176t172 112.5t223 39.5q124 0 225 -40t173 -114t109.5 -176t37.5 -225zM889 530q0 167 -73.5 260t-197.5 93q-80 0 -141 -41.5
t-94 -122.5t-33 -189q0 -107 32.5 -187t93 -122.5t142.5 -42.5q124 0 197.5 93.5t73.5 258.5zM409 1311q-51 0 -69 -68q-18 -59 -54 -59q-22 0 -39.5 20.5t-17.5 57.5q0 50 22 96.5t61.5 74t84.5 27.5t83.5 -13t103 -42.5t88.5 -38t53 -8.5t45.5 14.5t25.5 52.5q16 58 54 58
q23 0 40 -21t17 -57q0 -56 -42.5 -126.5t-131.5 -70.5q-34 0 -70 11.5t-99 39.5t-94 40t-61 12z" />
    <glyph glyph-name="odieresis" unicode="&#xf6;" horiz-adv-x="1237" 
d="M76 0zM1163 530q0 -122 -38 -225t-110 -177t-172 -113.5t-225 -39.5q-124 0 -223 40t-171.5 114.5t-110 176t-37.5 224.5q0 124 38 227t109 176t172 112.5t223 39.5q124 0 225 -40t173 -114t109.5 -176t37.5 -225zM889 530q0 167 -73.5 260t-197.5 93q-80 0 -141 -41.5
t-94 -122.5t-33 -189q0 -107 32.5 -187t93 -122.5t142.5 -42.5q124 0 197.5 93.5t73.5 258.5zM374 1219q-43 0 -77.5 30t-34.5 82q0 50 33 81.5t79 31.5q45 0 79 -28.5t34 -84.5q0 -52 -34 -82t-79 -30zM764 1444q28 0 55 -15t42 -42t15 -56q0 -52 -33 -82t-79 -30
q-44 0 -78.5 30t-34.5 82q0 45 34 79t79 34z" />
    <glyph glyph-name="divide" unicode="&#xf7;" horiz-adv-x="1194" 
d="M1110 854v-262h-1026v262h1026zM598 981q-35 0 -67.5 20.5t-53 54t-20.5 66.5q0 67 42 104.5t99 37.5q56 0 98.5 -38t42.5 -104q0 -57 -42 -99t-99 -42zM598 184q-35 0 -68 21.5t-53 54t-20 66.5q0 66 42 103.5t99 37.5q56 0 98.5 -38t42.5 -103q0 -57 -41.5 -99.5
t-99.5 -42.5z" />
    <glyph glyph-name="oslash" unicode="&#xf8;" horiz-adv-x="1237" 
d="M1116 926l-51 -52q98 -149 98 -344q0 -123 -37.5 -224.5t-110 -176.5t-173 -114.5t-224.5 -39.5q-99 0 -189.5 29t-158.5 80l-37 -37q-44 -44 -65 -62t-41 -18q-30 0 -50 19t-20 45q0 30 15 52t55 62l45 45q-96 146 -96 340q0 124 38 227t109 176t172 112.5t223 39.5
q102 0 191 -27t158 -79l49 51q32 32 52.5 47t47.5 15q25 0 44.5 -18.5t19.5 -49.5q0 -25 -15.5 -46t-48.5 -52zM868 680l-428 -428q71 -74 178 -74q124 0 197.5 93.5t73.5 258.5q0 79 -21 150zM369 385l428 426q-72 72 -179 72q-80 0 -141 -41.5t-94 -122.5t-33 -189
q0 -76 19 -145z" />
    <glyph glyph-name="ugrave" unicode="&#xf9;" horiz-adv-x="1237" 
d="M133 0zM850 129v35q-49 -62 -103 -104t-118 -62.5t-146 -20.5q-99 0 -177.5 41t-121.5 113q-51 87 -51 250v541q0 82 37 122.5t98 40.5q62 0 100 -41t38 -122v-437q0 -95 16 -159.5t57.5 -101t112.5 -36.5q69 0 130 41t89 107q23 58 23 254v332q0 81 38 122t99 41
t98 -40.5t37 -122.5v-791q0 -78 -35.5 -117t-91.5 -39t-92.5 40.5t-36.5 113.5zM651 1364l45 -84q27 -43 27 -59q0 -25 -43 -25q-66 0 -123 29q-28 14 -138 119t-110 118q0 15 51 15h135q59 0 89 -21t67 -92z" />
    <glyph glyph-name="uacute" unicode="&#xfa;" horiz-adv-x="1237" 
d="M133 0zM850 129v35q-49 -62 -103 -104t-118 -62.5t-146 -20.5q-99 0 -177.5 41t-121.5 113q-51 87 -51 250v541q0 82 37 122.5t98 40.5q62 0 100 -41t38 -122v-437q0 -95 16 -159.5t57.5 -101t112.5 -36.5q69 0 130 41t89 107q23 58 23 254v332q0 81 38 122t99 41
t98 -40.5t37 -122.5v-791q0 -78 -35.5 -117t-91.5 -39t-92.5 40.5t-36.5 113.5zM649 1477h135q51 0 51 -15q0 -8 -56 -65t-113 -109t-79 -63q-57 -29 -122 -29q-43 0 -43 25q0 17 26 59l45 84q39 73 68 93t88 20z" />
    <glyph glyph-name="ucircumflex" unicode="&#xfb;" horiz-adv-x="1237" 
d="M133 0zM850 129v35q-49 -62 -103 -104t-118 -62.5t-146 -20.5q-99 0 -177.5 41t-121.5 113q-51 87 -51 250v541q0 82 37 122.5t98 40.5q62 0 100 -41t38 -122v-437q0 -95 16 -159.5t57.5 -101t112.5 -36.5q69 0 130 41t89 107q23 58 23 254v332q0 81 38 122t99 41
t98 -40.5t37 -122.5v-791q0 -78 -35.5 -117t-91.5 -39t-92.5 40.5t-36.5 113.5zM669 1272l-100 117l-100 -117q-42 -50 -57 -61t-56 -11h-80q-41 0 -41 14q0 11 31 50l111 133q14 17 32 39.5t31.5 32t39.5 15t60 5.5h56q66 0 90.5 -16t72.5 -76l115 -135q29 -38 29 -45
q0 -17 -45 -17h-76q-30 0 -47.5 8.5t-33.5 26.5t-32 37z" />
    <glyph glyph-name="udieresis" unicode="&#xfc;" horiz-adv-x="1237" 
d="M133 0zM850 129v35q-49 -62 -103 -104t-118 -62.5t-146 -20.5q-99 0 -177.5 41t-121.5 113q-51 87 -51 250v541q0 82 37 122.5t98 40.5q62 0 100 -41t38 -122v-437q0 -95 16 -159.5t57.5 -101t112.5 -36.5q69 0 130 41t89 107q23 58 23 254v332q0 81 38 122t99 41
t98 -40.5t37 -122.5v-791q0 -78 -35.5 -117t-91.5 -39t-92.5 40.5t-36.5 113.5zM374 1219q-43 0 -77.5 30t-34.5 82q0 50 33 81.5t79 31.5q45 0 79 -28.5t34 -84.5q0 -52 -34 -82t-79 -30zM764 1444q28 0 55 -15t42 -42t15 -56q0 -52 -33 -82t-79 -30q-44 0 -78.5 30
t-34.5 82q0 45 34 79t79 34z" />
    <glyph glyph-name="yacute" unicode="&#xfd;" horiz-adv-x="1110" 
d="M20 0zM393 -59l25 61l-336 846q-31 73 -31 106q0 35 18 65t49.5 48t65.5 18q59 0 89 -37.5t53 -107.5l231 -672l219 625q26 76 47 119t44.5 58t66.5 15q31 0 59.5 -16.5t44 -44.5t15.5 -59q-4 -19 -13 -54t-22 -71l-356 -932q-46 -123 -90 -193t-116.5 -107.5
t-195.5 -37.5q-120 0 -180 26t-60 95q0 47 28.5 72.5t84.5 25.5q22 0 43 -6q26 -6 45 -6q47 0 74 14t48.5 48.5t49.5 101.5zM592 1477h135q51 0 51 -15q0 -8 -56 -65t-113 -109t-79 -63q-57 -29 -122 -29q-43 0 -43 25q0 17 26 59l45 84q39 73 68 93t88 20z" />
    <glyph glyph-name="thorn" unicode="&#xfe;" horiz-adv-x="1280" 
d="M393 1335v-436q77 95 160 139.5t188 44.5q126 0 232 -65t167.5 -190t61.5 -296q0 -126 -35.5 -231.5t-97.5 -177t-146.5 -110t-181.5 -38.5q-117 0 -196.5 47t-151.5 138v-410q0 -180 -131 -180q-77 0 -102 46.5t-25 135.5v1583q0 79 34 117.5t93 38.5q58 0 94.5 -39
t36.5 -117zM928 535q0 108 -33 185.5t-91.5 119t-129.5 41.5q-113 0 -190.5 -89t-77.5 -262q0 -163 77 -253.5t191 -90.5q68 0 126 39.5t93 118.5t35 191z" />
    <glyph glyph-name="ydieresis" unicode="&#xff;" horiz-adv-x="1110" 
d="M20 0zM393 -59l25 61l-336 846q-31 73 -31 106q0 35 18 65t49.5 48t65.5 18q59 0 89 -37.5t53 -107.5l231 -672l219 625q26 76 47 119t44.5 58t66.5 15q31 0 59.5 -16.5t44 -44.5t15.5 -59q-4 -19 -13 -54t-22 -71l-356 -932q-46 -123 -90 -193t-116.5 -107.5
t-195.5 -37.5q-120 0 -180 26t-60 95q0 47 28.5 72.5t84.5 25.5q22 0 43 -6q26 -6 45 -6q47 0 74 14t48.5 48.5t49.5 101.5zM317 1219q-43 0 -77.5 30t-34.5 82q0 50 33 81.5t79 31.5q45 0 79 -28.5t34 -84.5q0 -52 -34 -82t-79 -30zM707 1444q28 0 55 -15t42 -42t15 -56
q0 -52 -33 -82t-79 -30q-44 0 -78.5 30t-34.5 82q0 45 34 79t79 34z" />
    <glyph glyph-name="dotlessi" unicode="&#x131;" horiz-adv-x="555" 
d="M414 930v-789q0 -82 -39 -124t-99 -42t-97.5 43t-37.5 123v781q0 81 37.5 122t97.5 41t99 -41t39 -114z" />
    <glyph glyph-name="OE" unicode="&#x152;" horiz-adv-x="2111" 
d="M1292 1466h606q72 0 109 -32.5t37 -85.5t-36 -85t-110 -32h-546v-348h495q73 0 108.5 -33.5t35.5 -85.5q0 -53 -35 -85t-109 -32h-495v-411h579q144 0 144 -119q0 -117 -144 -117h-645q-109 0 -151.5 39.5t-42.5 138.5q-74 -104 -170.5 -153.5t-243.5 -49.5
q-136 0 -247.5 52.5t-190 153t-119.5 241t-41 311.5q0 176 41.5 317t118.5 239.5t186.5 150t243.5 51.5q142 0 240.5 -47t181.5 -146q1 70 23 106t65 49t112 13zM1065 705v92q0 227 -88 342.5t-250 115.5q-164 0 -255 -130t-91 -377q0 -135 23 -235.5t68.5 -168t111 -100.5
t147.5 -33q85 0 157 41.5t113 114.5q64 109 64 338z" />
    <glyph glyph-name="oe" unicode="&#x153;" horiz-adv-x="1962" 
d="M1370 1087q165 0 282.5 -67.5t175.5 -173t58 -221.5q0 -162 -182 -162h-569q6 -99 39.5 -167t91 -102t135.5 -34q90 0 146 26.5t93.5 65t71.5 71.5t68 33q40 0 65 -27t25 -69q0 -46 -49 -114.5t-152.5 -119.5t-251.5 -51t-242 39.5t-178 126.5q-151 -166 -387 -166
q-152 0 -274 71t-190 198t-68 286q0 160 64 286.5t184.5 197.5t279.5 71q117 0 210 -38.5t175 -120.5q78 83 169 122t210 39zM1133 621h493q-10 140 -73 208t-171 68q-109 0 -179 -79t-70 -191v-6zM344 526q0 -108 33.5 -186t95.5 -120t143 -42q115 0 189 92.5t74 255.5
q0 110 -32.5 191.5t-93 123.5t-141.5 42q-124 0 -196 -98.5t-72 -258.5z" />
    <glyph glyph-name="Scaron" unicode="&#x160;" horiz-adv-x="1366" 
d="M109 0zM1274 440q0 -133 -68.5 -239t-200.5 -166t-313 -60q-217 0 -358 82q-100 59 -162.5 157.5t-62.5 191.5q0 54 37.5 92.5t95.5 38.5q47 0 79.5 -30t55.5 -89q28 -70 60.5 -117t91.5 -77.5t155 -30.5q132 0 214.5 61.5t82.5 153.5q0 73 -44.5 118.5t-115 69.5
t-188.5 51q-158 37 -264.5 86.5t-169 135t-62.5 212.5q0 121 66 215t191 144.5t294 50.5q135 0 233.5 -33.5t163.5 -89t95 -116.5t30 -119q0 -53 -37.5 -95.5t-93.5 -42.5q-51 0 -77.5 25.5t-57.5 83.5q-40 83 -96 129.5t-180 46.5q-115 0 -185.5 -50.5t-70.5 -121.5
q0 -44 24 -76t66 -55t85 -36t142 -38q124 -29 224.5 -64t171 -85t110 -126.5t39.5 -187.5zM584 1788l100 -117l98 117q42 50 57.5 61t57.5 11h80q41 0 41 -14q0 -11 -31 -50l-110 -133l-37.5 -45t-29.5 -26.5t-40.5 -16t-56.5 -4.5h-56q-45 0 -70.5 8.5t-37 20.5t-55.5 63
l-115 135q-29 38 -29 48q0 12 7.5 13t35.5 1h78q42 0 58.5 -13t54.5 -59z" />
    <glyph glyph-name="scaron" unicode="&#x161;" horiz-adv-x="1110" 
d="M84 0zM1020 332q0 -113 -55 -193.5t-162.5 -122t-261.5 -41.5q-147 0 -252 45t-155 112.5t-50 135.5q0 45 32 77t81 32q43 0 66 -21t44 -59q42 -73 100.5 -109t159.5 -36q82 0 134.5 36.5t52.5 83.5q0 72 -54.5 105t-179.5 63q-141 35 -229.5 73.5t-141.5 101.5t-53 155
q0 82 49 155t144.5 116.5t230.5 43.5q106 0 190.5 -22t141 -59t86 -82t29.5 -88q0 -47 -31.5 -77t-89.5 -30q-42 0 -71.5 24t-67.5 72q-31 40 -73 64t-114 24q-74 0 -123 -31.5t-49 -78.5q0 -43 36 -70.5t97 -45.5t168 -44q127 -31 207.5 -74t122 -101.5t41.5 -133.5z
M412 1417l100 -117l98 117q42 50 57.5 61t57.5 11h80q41 0 41 -14q0 -11 -31 -50l-110 -133l-37.5 -45t-29.5 -26.5t-40.5 -16t-56.5 -4.5h-56q-45 0 -70.5 8.5t-37 20.5t-55.5 63l-115 135q-29 38 -29 48q0 12 7.5 13t35.5 1h78q42 0 58.5 -13t54.5 -59z" />
    <glyph glyph-name="Ydieresis" unicode="&#x178;" horiz-adv-x="1280" 
d="M43 0zM487 156v465l-358 555q-47 75 -66.5 117t-19.5 73q0 51 39.5 88t97.5 37q61 0 92.5 -34.5t94.5 -137.5l274 -445l277 445q25 41 42 69t37.5 52.5t45.5 37.5t61 13q56 0 93.5 -36.5t37.5 -84.5q0 -39 -19 -78t-65 -108l-367 -563v-465q0 -91 -42 -136t-107 -45
q-66 0 -107 44.5t-41 136.5zM489 1590q-43 0 -77.5 30t-34.5 82q0 50 33 81.5t79 31.5q45 0 79 -28.5t34 -84.5q0 -52 -34 -82t-79 -30zM879 1815q28 0 55 -15t42 -42t15 -56q0 -52 -33 -82t-79 -30q-44 0 -78.5 30t-34.5 82q0 45 34 79t79 34z" />
    <glyph glyph-name="florin" unicode="&#x192;" 
d="M440 778h52l57 316q21 111 39 172t57.5 114t109 81t179.5 28q115 0 182.5 -30.5t67.5 -92.5q0 -63 -41.5 -78t-116 -2.5t-78.5 12.5q-53 0 -80.5 -27t-43 -79t-37.5 -187.5t-39 -226.5h63q71 0 110.5 -18.5t39.5 -77.5q0 -55 -41 -77.5t-123 -22.5h-84l-109 -627
q-15 -91 -37.5 -159t-63 -118t-108.5 -78t-172 -28q-118 0 -186 31t-68 88q0 40 27.5 65t75.5 25q9 0 51.5 -9.5t69.5 -9.5q80 0 108.5 43.5t46.5 143.5l109 633h-39q-74 0 -114 20t-40 70q0 61 45.5 83.5t130.5 22.5z" />
    <glyph glyph-name="circumflex" unicode="&#x2c6;" horiz-adv-x="682" 
d="M442 1272l-100 117l-100 -117q-42 -50 -57 -61t-56 -11h-80q-41 0 -41 14q0 11 31 50l111 133q14 17 32 39.5t31.5 32t39.5 15t60 5.5h56q66 0 90.5 -16t72.5 -76l115 -135q29 -38 29 -45q0 -17 -45 -17h-76q-30 0 -47.5 8.5t-33.5 26.5t-32 37z" />
    <glyph glyph-name="caron" unicode="&#x2c7;" horiz-adv-x="682" 
d="M242 1417l100 -117l98 117q42 50 57.5 61t57.5 11h80q41 0 41 -14q0 -11 -31 -50l-110 -133l-37.5 -45t-29.5 -26.5t-40.5 -16t-56.5 -4.5h-56q-45 0 -70.5 8.5t-37 20.5t-55.5 63l-115 135q-29 38 -29 48q0 12 7.5 13t35.5 1h78q42 0 58.5 -13t54.5 -59z" />
    <glyph glyph-name="macron" unicode="&#x2c9;" horiz-adv-x="682" 
d="M702 1264h-725v139h725v-139z" />
    <glyph glyph-name="breve" unicode="&#x2d8;" horiz-adv-x="682" 
d="M344 1341q74 0 124.5 38t63.5 104q14 65 60 65q27 0 44 -19.5t17 -47.5q0 -64 -38 -128t-108.5 -105.5t-160.5 -41.5q-135 0 -226 87t-91 188q0 25 18 46t43 21q43 0 62 -69q16 -64 67 -101t125 -37z" />
    <glyph glyph-name="dotaccent" unicode="&#x2d9;" horiz-adv-x="682" 
d="M342 1444q29 0 55 -15t42 -41.5t16 -56.5q0 -71 -56.5 -99t-113 0t-56.5 99q0 46 33.5 79.5t79.5 33.5z" />
    <glyph glyph-name="ring" unicode="&#x2da;" horiz-adv-x="682" 
d="M340 1567q85 0 146 -61t61 -146t-61 -146t-146 -61q-57 0 -104 28t-75 75t-28 104q0 85 61 146t146 61zM340 1462q-44 0 -73 -29t-29 -73q0 -43 29.5 -71.5t72.5 -28.5q28 0 51.5 13t37 36t13.5 51q0 21 -8 40.5t-21 32.5t-32.5 21t-40.5 8z" />
    <glyph glyph-name="ogonek" unicode="&#x2db;" horiz-adv-x="682" 
d="M94 -190q0 53 37 110.5t86.5 96t83.5 38.5q30 0 53 -25.5t23 -52.5q0 -20 -10 -33.5t-33 -39.5q-43 -43 -43 -72q0 -47 71 -47q22 0 78.5 17.5t77.5 17.5q31 0 50.5 -21.5t19.5 -48.5q0 -37 -40 -64.5t-104 -42t-118 -14.5q-69 0 -121.5 21.5t-81.5 63t-29 96.5z" />
    <glyph glyph-name="tilde" unicode="&#x2dc;" horiz-adv-x="682" 
d="M182 1311q-51 0 -69 -68q-18 -59 -54 -59q-22 0 -39.5 20.5t-17.5 57.5q0 50 22 96.5t61.5 74t84.5 27.5t83.5 -13t103 -42.5t88.5 -38t53 -8.5t45.5 14.5t25.5 52.5q16 58 54 58q23 0 40 -21t17 -57q0 -56 -42.5 -126.5t-131.5 -70.5q-34 0 -70 11.5t-99 39.5t-94 40
t-61 12z" />
    <glyph glyph-name="hungarumlaut" unicode="&#x2dd;" horiz-adv-x="682" 
d="M313 1477h136q51 0 51 -15q0 -10 -62 -72t-166 -153q-17 -14 -63 -27.5t-80 -13.5q-43 0 -43 25q0 20 27 59l45 84q41 73 69.5 93t85.5 20zM670 1477h135q51 0 51 -15q0 -10 -66 -76t-161 -149q-16 -14 -63 -27.5t-81 -13.5q-43 0 -43 25q0 8 4 17.5t9 18t14 23.5l45 84
q27 49 48 73t45.5 32t62.5 8z" />
    <glyph glyph-name="pi" unicode="&#x3c0;" horiz-adv-x="1124" 
d="M686 821h-231q-17 -201 -33 -329.5t-31 -221t-31 -168.5q-13 -59 -38 -92.5t-74 -46.5q-40 -10 -79.5 16t-47.5 62q-6 27 -3 45.5t11 34.5t18 29t21 26q3 4 34.5 41t47.5 67.5t20 67.5l60 469h-97q-41 0 -78 -19.5t-57 -45.5l-43 -64h-35q14 39 35 93.5t58 105.5
q29 43 78 74.5t114 31.5h764v-176h-258q-25 -239 -25 -481q0 -44 15 -86t37 -64q28 -26 68.5 -33.5t82.5 25.5q23 18 33.5 41t13.5 44l6 42h43q-1 -83 -25 -149.5t-57 -107t-65 -58.5q-36 -22 -84 -26.5t-88 22.5q-66 48 -100 151q-19 60 -21.5 158.5t6.5 192.5z" />
    <glyph glyph-name="endash" unicode="&#x2013;" horiz-adv-x="1024" 
d="M1036 426h-1048v184h1048v-184z" />
    <glyph glyph-name="emdash" unicode="&#x2014;" horiz-adv-x="2048" 
d="M2060 426h-2072v184h2072v-184z" />
    <glyph glyph-name="quoteleft" unicode="&#x2018;" horiz-adv-x="641" 
d="M330 1192h14q57 0 102.5 -43.5t45.5 -108.5q0 -64 -45.5 -105.5t-112.5 -41.5q-73 0 -121.5 58.5t-48.5 166.5q0 99 42.5 185.5t104 137t109.5 50.5q30 0 48.5 -19.5t18.5 -48.5q0 -45 -38 -65q-53 -29 -84 -68t-35 -98z" />
    <glyph glyph-name="quoteright" unicode="&#x2019;" horiz-adv-x="641" 
d="M326 1188h-15q-56 0 -101.5 45.5t-45.5 107.5q0 64 45.5 107t112.5 43q46 0 86 -26.5t62 -77t22 -123.5q0 -99 -42 -185.5t-102.5 -137t-109.5 -50.5q-31 0 -50.5 19.5t-19.5 47.5q0 45 41 66q53 31 83 68t34 96z" />
    <glyph glyph-name="quotesinglbase" unicode="&#x201a;" horiz-adv-x="641" 
d="M326 -27q-66 0 -114 40.5t-48 113.5q0 63 47 106t111 43q48 0 87 -26t61 -76.5t22 -124.5q0 -99 -42 -185.5t-102.5 -137t-109.5 -50.5q-31 0 -50.5 20.5t-19.5 47.5q0 41 41 66q117 65 117 163z" />
    <glyph glyph-name="quotedblleft" unicode="&#x201c;" horiz-adv-x="938" 
d="M258 1192h14q57 0 102.5 -43.5t45.5 -108.5q0 -64 -45.5 -105.5t-112.5 -41.5q-73 0 -121.5 58.5t-48.5 166.5q0 99 42.5 185.5t104 137t109.5 50.5q32 0 50 -19t18 -49q0 -44 -39 -65q-53 -29 -84 -68t-35 -98zM700 1192h13q56 0 101.5 -43.5t45.5 -108.5
q0 -63 -45.5 -106t-112.5 -43q-74 0 -122 60t-48 167q0 77 25 145t64.5 118.5t85 80t81.5 29.5q33 0 50.5 -18.5t17.5 -49.5q0 -45 -39 -65q-55 -31 -83 -68.5t-34 -97.5z" />
    <glyph glyph-name="quotedblright" unicode="&#x201d;" horiz-adv-x="938" 
d="M238 1188h-15q-56 0 -101.5 45.5t-45.5 107.5q0 64 45.5 107t111.5 43q75 0 122.5 -60t47.5 -167q0 -98 -41.5 -184.5t-102 -137.5t-109.5 -51q-31 0 -50.5 19.5t-19.5 47.5q0 45 41 66q53 31 83 68t34 96zM678 1188h-12q-57 0 -103.5 45t-46.5 108t46 106.5t112 43.5
q76 0 123 -59t47 -168q0 -101 -41.5 -186.5t-102 -136t-110.5 -50.5q-32 0 -51 19t-19 48q0 44 41 66q57 33 85 68.5t32 95.5z" />
    <glyph glyph-name="quotedblbase" unicode="&#x201e;" horiz-adv-x="938" 
d="M682 -27q-66 0 -114 40.5t-48 113.5q0 63 47 106t111 43q48 0 87 -26t61 -76.5t22 -124.5q0 -99 -42 -185.5t-102.5 -137t-109.5 -50.5q-31 0 -50.5 20.5t-19.5 47.5q0 40 41 66q117 64 117 163zM242 -27q-66 0 -114 40.5t-48 113.5q0 63 47 106t111 43q48 0 87 -26
t61 -76.5t22 -124.5q0 -99 -42 -185.5t-102.5 -137t-109.5 -50.5q-31 0 -50.5 20.5t-19.5 47.5q0 41 41 66q117 65 117 163z" />
    <glyph glyph-name="dagger" unicode="&#x2020;" 
d="M485 -242v1080h-278q-65 0 -98 29.5t-33 76.5q0 48 33.5 77.5t97.5 29.5h278v276q0 77 34 114.5t89 37.5q56 0 90.5 -37.5t34.5 -114.5v-276h279q66 0 98.5 -29t32.5 -78q0 -47 -33 -76.5t-98 -29.5h-279v-1080q0 -76 -34.5 -113.5t-90.5 -37.5q-55 0 -89 37.5t-34 113.5
z" />
    <glyph glyph-name="daggerdbl" unicode="&#x2021;" 
d="M485 -242v230h-278q-66 0 -98.5 29t-32.5 77q0 49 32.5 78t98.5 29h278v682h-278q-64 0 -97.5 29.5t-33.5 76.5q0 48 33 77.5t98 29.5h278v231q0 76 34.5 114t90.5 38q57 0 90 -38.5t33 -113.5v-231h279q66 0 98.5 -29t32.5 -78q0 -48 -32.5 -77t-98.5 -29h-279v-682h279
q66 0 98.5 -29t32.5 -78q0 -48 -32.5 -77t-98.5 -29h-279v-230q0 -75 -34 -113t-89 -38t-90 38t-35 113z" />
    <glyph glyph-name="bullet" unicode="&#x2022;" horiz-adv-x="725" 
d="M659 723q0 -123 -88 -209t-209 -86q-122 0 -208 86t-86 209q0 122 85.5 209.5t208.5 87.5q79 0 148 -40t109 -109t40 -148z" />
    <glyph glyph-name="ellipsis" unicode="&#x2026;" horiz-adv-x="2048" 
d="M1024 -23q-60 0 -105 40t-45 110q0 62 43.5 105.5t106.5 43.5t107.5 -43.5t44.5 -105.5q0 -71 -46 -110.5t-106 -39.5zM342 -23q-60 0 -104.5 39.5t-44.5 110.5q0 63 43 106t106 43t107.5 -43.5t44.5 -105.5q0 -71 -46 -110.5t-106 -39.5zM1706 -23q-59 0 -104.5 40
t-45.5 110q0 62 43.5 105.5t106.5 43.5t107.5 -43.5t44.5 -105.5q0 -70 -45.5 -110t-106.5 -40z" />
    <glyph glyph-name="perthousand" unicode="&#x2030;" horiz-adv-x="2474" 
d="M676 1090q0 -191 -84 -284t-230 -93q-90 0 -161.5 39.5t-111.5 123.5t-40 205q0 130 31 217t100.5 132t177.5 45q78 0 137 -24t100 -73.5t61 -120.5t20 -167zM489 1100q0 131 -28 190.5t-99 59.5q-48 0 -76.5 -28.5t-39 -84t-10.5 -141.5q0 -89 10.5 -145t38.5 -84.5
t77 -28.5q74 0 100.5 63t26.5 199zM1700 367q0 -191 -84 -284t-230 -93q-91 0 -162.5 40t-112 123t-40.5 205q0 195 74.5 293.5t236.5 98.5q78 0 136.5 -24t100 -72t61.5 -119.5t20 -167.5zM1513 377q0 129 -28 188.5t-99 59.5q-50 0 -78 -28t-39.5 -82.5t-11.5 -141.5
q0 -134 28.5 -196t100.5 -62q73 0 100 63.5t27 198.5zM1343 1343l-833 -1343q-32 -55 -72 -55q-23 0 -46 17.5t-23 45.5q0 21 20 51l838 1354q22 37 38.5 55.5t47.5 18.5q30 0 48.5 -17.5t18.5 -46.5q0 -21 -37 -80zM2427 367q0 -128 -39 -212t-110.5 -124.5t-166.5 -40.5
q-89 0 -161 40t-112 123.5t-40 204.5q0 194 73 293t236 99q156 0 238 -96.5t82 -286.5zM2241 377q0 129 -28.5 188.5t-101.5 59.5q-49 0 -77 -28t-38.5 -83.5t-10.5 -140.5q0 -87 10.5 -143.5t39 -85.5t76.5 -29q75 0 102.5 64t27.5 198z" />
    <glyph glyph-name="guilsinglleft" unicode="&#x2039;" horiz-adv-x="748" 
d="M539 813l-181 -289l191 -303q26 -36 26 -71q0 -38 -26.5 -62.5t-65.5 -24.5q-31 0 -55.5 19t-62.5 76l-179 268q-43 66 -43 96q0 36 43 103l185 276q52 82 110 82q38 0 65 -24.5t27 -59.5q0 -20 -5 -33.5t-13 -27t-16 -25.5z" />
    <glyph glyph-name="guilsinglright" unicode="&#x203a;" horiz-adv-x="748" 
d="M201 221l190 303l-180 289q-10 16 -18.5 28.5t-13.5 27.5t-5 30q0 34 28 59t64 25q57 0 111 -82l184 -276q43 -63 43 -103q0 -31 -43 -96l-176 -268q-36 -55 -62.5 -75t-56.5 -20q-40 0 -67 25.5t-27 61.5q0 34 29 71z" />
    <glyph glyph-name="trademark" unicode="&#x2122;" horiz-adv-x="2048" 
d="M637 647h-166v676h-254v143h666v-143h-246v-676zM1137 647h-156v819h260l148 -565l149 565h260v-819h-158v653l-178 -653h-149l-176 653v-653z" />
    <glyph glyph-name="Omega" unicode="&#x2126;" horiz-adv-x="1573" 
d="M641 311l33 -311h-604v332h30q20 -78 45.5 -101.5t90.5 -23.5h323l-4 57q-89 27 -145.5 53.5t-106.5 68.5t-90 101q-69 103 -90.5 212.5t-4 212t61.5 180.5q52 95 106.5 140t127.5 87q69 41 169.5 65.5t204.5 24.5q105 0 205.5 -24.5t169.5 -65.5q73 -42 127 -86
t107 -141q44 -78 61.5 -180.5t-4 -212t-90.5 -212.5q-60 -87 -137.5 -135.5t-204.5 -87.5l-4 -57h323q65 0 91.5 24.5t44.5 100.5h30v-332h-604l33 311q25 11 55.5 24.5t61.5 35.5t64 65.5t61 108.5q37 86 47.5 215.5t-22.5 261t-118 215.5q-106 106 -297 106t-296 -106
q-85 -84 -118 -215.5t-22.5 -261t47.5 -215.5q28 -65 60.5 -108t64.5 -66t61 -36t56 -24z" />
    <glyph glyph-name="partialdiff" unicode="&#x2202;" horiz-adv-x="1012" 
d="M220 1366l-80 102q76 34 177 52t194 -4q102 -24 188.5 -89t155.5 -186q42 -73 64 -164t28 -160.5t6 -111.5q0 -47 -10 -143t-34.5 -205.5t-61.5 -188.5q-48 -102 -91.5 -160t-121.5 -102q-102 -56 -208.5 -48.5t-191.5 65.5q-45 31 -80 70.5t-60.5 96.5t-31.5 129
q-9 111 27 204t86 155q58 71 128 109.5t163 35.5q88 -3 147 -31t160 -108q18 99 22 238q3 65 -19.5 168.5t-45.5 156.5q-24 59 -84.5 117.5t-144.5 65.5q-56 5 -89.5 3t-56.5 -9t-64 -26t-71 -32zM757 612q-59 67 -101 99.5t-121 31.5q-117 -3 -196 -110
q-41 -58 -62.5 -110.5t-31 -107t-9.5 -112.5q0 -74 17.5 -144.5t77.5 -111.5q44 -28 83.5 -29t86.5 19q103 45 165 190q36 88 57.5 186.5t33.5 198.5z" />
    <glyph glyph-name="Delta" unicode="&#x2206;" horiz-adv-x="1253" 
d="M668 1409l577 -1409h-1233zM594 1059l-447 -959h844z" />
    <glyph glyph-name="product" unicode="&#x220f;" horiz-adv-x="1686" 
d="M1446 1288v-1282q0 -69 23.5 -105t67 -48.5t108.5 -12.5v-47h-627v47q100 0 148 33t48 133v1419h-733v-1419q0 -69 23.5 -105t67 -48.5t108.5 -12.5v-47h-629v47q102 0 150.5 33t48.5 133v1282q0 203 -195 203v47h1583v-47q-192 0 -192 -203z" />
    <glyph glyph-name="summation" unicode="&#x2211;" horiz-adv-x="1460" 
d="M1264 1526l12 -326h-41q-32 102 -50.5 139t-79 66t-183.5 29h-539l559 -734l-602 -694h760q83 0 128 19.5t77 66t71 146.5h47q-45 -185 -56 -245t-32 -214q-39 7 -80 14.5t-77 7.5h-1031q-14 0 -36.5 -1.5l-45 -3t-36.5 -1.5l714 815l-710 930q32 -2 105 -8t108 -6h1018z
" />
    <glyph glyph-name="fraction" unicode="&#x2215;" horiz-adv-x="299" 
d="M621 1343l-834 -1343q-32 -55 -74 -55q-23 0 -46 17.5t-23 45.5q0 21 20 51l840 1354q26 44 40 61t46 17q31 0 48 -18.5t17 -49.5q0 -23 -34 -80z" />
    <glyph glyph-name="periodcentered" unicode="&#x2219;" horiz-adv-x="641" 
d="M170 725q0 41 20.5 75t54.5 54t74 20q63 0 107.5 -43.5t44.5 -105.5q0 -94 -75 -132.5t-150.5 0t-75.5 132.5z" />
    <glyph glyph-name="radical" unicode="&#x221a;" horiz-adv-x="1124" 
d="M53 854l-33 68l299 147l404 -825l260 1634l72 -10l-307 -1946l-498 1028z" />
    <glyph glyph-name="infinity" unicode="&#x221e;" horiz-adv-x="1460" 
d="M738 608q75 67 110.5 97t72 53t81.5 43q72 32 143 27.5t131 -41t97 -93.5t43 -123q8 -78 -29.5 -154.5t-110 -123t-161.5 -37.5q-70 7 -134 34.5t-109 61t-87.5 76t-46.5 45.5q-24 -24 -56.5 -56t-76.5 -65.5t-108 -61t-136 -34.5q-89 -9 -161.5 37.5t-110 123
t-29.5 154.5q7 67 44 124t97 93t131 40.5t142 -27.5q45 -20 81.5 -43t72 -53t110.5 -97zM671 541q-88 75 -141.5 112t-102.5 54q-61 22 -110.5 12.5t-84.5 -40.5t-52 -71.5t-17 -77.5q1 -56 37 -101.5t91 -64.5t109 -6q81 19 124 50.5t147 132.5zM806 541q68 -67 105 -99.5
t73 -51.5t92 -32q55 -13 110 6t91 64.5t37 101.5q2 49 -29.5 102.5t-92 78t-143.5 -3.5q-50 -18 -103 -55.5t-140 -110.5z" />
    <glyph glyph-name="integral" unicode="&#x222b;" horiz-adv-x="561" 
d="M395 999l-2 -442q-2 -364 -70 -600q-21 -76 -59 -125q-17 -22 -75.5 -42t-104.5 1q-22 11 -41.5 36t-26.5 44q-12 35 0 65t49 48q34 17 60.5 5t56.5 -46q29 -30 48.5 -4t27.5 82.5t6 130.5q-2 76 -4 141t-4 119.5t-3 163t-1 219.5v295q0 90 2 192t7.5 181.5t16 139.5
t27.5 121q10 34 37.5 75.5t54.5 58.5q26 16 56.5 17.5t59.5 -8.5t44 -20q27 -17 40.5 -60t-13.5 -77q-15 -18 -43 -29.5t-56 -8.5t-47 24q-22 22 -40.5 24t-29 -11.5t-12.5 -33.5q-1 -26 2 -62.5t14 -173t17 -243t6 -197.5z" />
    <glyph glyph-name="approxequal" unicode="&#x2248;" horiz-adv-x="1124" 
d="M1004 807l75 -49q-58 -97 -163.5 -138t-200.5 -14l-307 88q-66 19 -118 11.5t-86.5 -30t-54.5 -48.5t-32 -41l-88 55q79 105 182.5 142t216.5 5l309 -86q68 -20 162 19q66 28 105 86zM1004 498l75 -49q-58 -99 -163.5 -139t-200.5 -13l-307 88q-66 19 -118 11.5
t-86.5 -30t-56 -50.5t-30.5 -40l-88 56q79 105 182.5 142t216.5 5l309 -86q68 -20 162 19q66 28 105 86z" />
    <glyph glyph-name="notequal" unicode="&#x2260;" horiz-adv-x="1124" 
d="M823 1124l101 -57l-156 -279h338v-112h-399l-160 -285h559v-112h-621l-184 -330l-100 57l151 273h-321v112h385l157 285h-542v112h606z" />
    <glyph glyph-name="lessequal" unicode="&#x2264;" horiz-adv-x="1124" 
d="M59 0v113h1018v-113h-1018zM59 711v127l1018 471v-127l-887 -408l887 -407v-127z" />
    <glyph glyph-name="greaterequal" unicode="&#x2265;" horiz-adv-x="1124" 
d="M1077 113v-113h-1018v113h1018zM1077 838v-127l-1018 -471v127l887 407l-887 408v127z" />
    <glyph glyph-name="lozenge" unicode="&#x25ca;" horiz-adv-x="1012" 
d="M557 0h-123l-397 772l397 754h123l397 -754zM831 772l-335 643l-336 -643l336 -661z" />
    <glyph glyph-name="fi" unicode="&#xf001;" 
d="M109 1061h73v82q0 171 67.5 259.5t250.5 88.5q121 0 187.5 -29.5t66.5 -87.5q0 -42 -18.5 -60.5t-44 -20.5t-70.5 2.5t-50 4.5q-77 0 -104 -42.5t-27 -131.5v-65h66q156 0 156 -103q0 -25 -27 -57q-22 -24 -51.5 -30.5t-77.5 -6.5h-66v-731q0 -81 -35.5 -119.5
t-93.5 -38.5t-93.5 40t-35.5 118v731h-76q-126 0 -126 99q0 45 33.5 71.5t95.5 26.5zM1069 907v-772q0 -80 -35 -120t-94 -40q-56 0 -92.5 40.5t-36.5 119.5v793q0 78 34.5 117.5t94.5 39.5q73 0 101 -45t28 -133zM940 1479q55 0 92 -39t37 -94q0 -63 -37.5 -98.5
t-91.5 -35.5q-53 0 -91 36t-38 98q0 55 37 94t92 39z" />
    <glyph glyph-name="fl" unicode="&#xf002;" 
d="M1069 1337v-1202q0 -78 -35.5 -119t-93.5 -41q-57 0 -93 40t-36 120v1198q0 79 35 118.5t94 39.5q129 0 129 -154zM109 1061h73v82q0 171 67.5 259.5t250.5 88.5q121 0 187.5 -29.5t66.5 -87.5q0 -42 -18.5 -60.5t-44 -20.5t-70.5 2.5t-50 4.5q-77 0 -104 -42.5
t-27 -131.5v-65h66q156 0 156 -103q0 -25 -27 -57q-22 -24 -51.5 -30.5t-77.5 -6.5h-66v-731q0 -81 -35.5 -119.5t-93.5 -38.5t-93.5 40t-35.5 118v731h-76q-126 0 -126 99q0 45 33.5 71.5t95.5 26.5z" />
    <glyph glyph-name=".ttfautohint" 
d="M0 0z" />
    </font>
</defs>
</svg>
